<?xml version="1.0" standalone="yes"?>
<svg xmlns="http://www.w3.org/2000/svg" version="1.1" width="128" height="128">
<rect x="0" y="0" width="128" height="128" style="fill:beige;shape-rendering:crispEdges;"/>
<rect x="13.837837837837839" y="13.837837837837839" width="3.4594594594594597" height="3.4594594594594597" style="fill:blue;shape-rendering:crispEdges;"/>
<rect x="13.837837837837839" y="17.2972972972973" width="3.4594594594594597" height="3.4594594594594597" style="fill:blue;shape-rendering:crispEdges;"/>
<rect x="13.837837837837839" y="20.756756756756758" width="3.4594594594594597" height="3.4594594594594597" style="fill:blue;shape-rendering:crispEdges;"/>
<rect x="13.837837837837839" y="24.216216216216218" width="3.4594594594594597" height="3.4594594594594597" style="fill:blue;shape-rendering:crispEdges;"/>
<rect x="13.837837837837839" y="27.675675675675677" width="3.4594594594594597" height="3.4594594594594597" style="fill:blue;shape-rendering:crispEdges;"/>
<rect x="13.837837837837839" y="31.135135135135137" width="3.4594594594594597" height="3.4594594594594597" style="fill:blue;shape-rendering:crispEdges;"/>
<rect x="13.837837837837839" y="34.5945945945946" width="3.4594594594594597" height="3.4594594594594597" style="fill:blue;shape-rendering:crispEdges;"/>
<rect x="13.837837837837839" y="44.972972972972975" width="3.4594594594594597" height="3.4594594594594597" style="fill:blue;shape-rendering:crispEdges;"/>
<rect x="13.837837837837839" y="48.432432432432435" width="3.4594594594594597" height="3.4594594594594597" style="fill:blue;shape-rendering:crispEdges;"/>
<rect x="13.837837837837839" y="51.891891891891895" width="3.4594594594594597" height="3.4594594594594597" style="fill:blue;shape-rendering:crispEdges;"/>
<rect x="13.837837837837839" y="58.810810810810814" width="3.4594594594594597" height="3.4594594594594597" style="fill:blue;shape-rendering:crispEdges;"/>
<rect x="13.837837837837839" y="76.10810810810811" width="3.4594594594594597" height="3.4594594594594597" style="fill:blue;shape-rendering:crispEdges;"/>
<rect x="13.837837837837839" y="79.56756756756758" width="3.4594594594594597" height="3.4594594594594597" style="fill:blue;shape-rendering:crispEdges;"/>
<rect x="13.837837837837839" y="89.94594594594595" width="3.4594594594594597" height="3.4594594594594597" style="fill:blue;shape-rendering:crispEdges;"/>
<rect x="13.837837837837839" y="93.40540540540542" width="3.4594594594594597" height="3.4594594594594597" style="fill:blue;shape-rendering:crispEdges;"/>
<rect x="13.837837837837839" y="96.86486486486487" width="3.4594594594594597" height="3.4594594594594597" style="fill:blue;shape-rendering:crispEdges;"/>
<rect x="13.837837837837839" y="100.32432432432432" width="3.4594594594594597" height="3.4594594594594597" style="fill:blue;shape-rendering:crispEdges;"/>
<rect x="13.837837837837839" y="103.78378378378379" width="3.4594594594594597" height="3.4594594594594597" style="fill:blue;shape-rendering:crispEdges;"/>
<rect x="13.837837837837839" y="107.24324324324326" width="3.4594594594594597" height="3.4594594594594597" style="fill:blue;shape-rendering:crispEdges;"/>
<rect x="13.837837837837839" y="110.70270270270271" width="3.4594594594594597" height="3.4594594594594597" style="fill:blue;shape-rendering:crispEdges;"/>
<rect x="17.2972972972973" y="13.837837837837839" width="3.4594594594594597" height="3.4594594594594597" style="fill:blue;shape-rendering:crispEdges;"/>
<rect x="17.2972972972973" y="34.5945945945946" width="3.4594594594594597" height="3.4594594594594597" style="fill:blue;shape-rendering:crispEdges;"/>
<rect x="17.2972972972973" y="48.432432432432435" width="3.4594594594594597" height="3.4594594594594597" style="fill:blue;shape-rendering:crispEdges;"/>
<rect x="17.2972972972973" y="51.891891891891895" width="3.4594594594594597" height="3.4594594594594597" style="fill:blue;shape-rendering:crispEdges;"/>
<rect x="17.2972972972973" y="58.810810810810814" width="3.4594594594594597" height="3.4594594594594597" style="fill:blue;shape-rendering:crispEdges;"/>
<rect x="17.2972972972973" y="62.270270270270274" width="3.4594594594594597" height="3.4594594594594597" style="fill:blue;shape-rendering:crispEdges;"/>
<rect x="17.2972972972973" y="65.72972972972974" width="3.4594594594594597" height="3.4594594594594597" style="fill:blue;shape-rendering:crispEdges;"/>
<rect x="17.2972972972973" y="69.1891891891892" width="3.4594594594594597" height="3.4594594594594597" style="fill:blue;shape-rendering:crispEdges;"/>
<rect x="17.2972972972973" y="76.10810810810811" width="3.4594594594594597" height="3.4594594594594597" style="fill:blue;shape-rendering:crispEdges;"/>
<rect x="17.2972972972973" y="83.02702702702703" width="3.4594594594594597" height="3.4594594594594597" style="fill:blue;shape-rendering:crispEdges;"/>
<rect x="17.2972972972973" y="89.94594594594595" width="3.4594594594594597" height="3.4594594594594597" style="fill:blue;shape-rendering:crispEdges;"/>
<rect x="17.2972972972973" y="110.70270270270271" width="3.4594594594594597" height="3.4594594594594597" style="fill:blue;shape-rendering:crispEdges;"/>
<rect x="20.756756756756758" y="13.837837837837839" width="3.4594594594594597" height="3.4594594594594597" style="fill:blue;shape-rendering:crispEdges;"/>
<rect x="20.756756756756758" y="20.756756756756758" width="3.4594594594594597" height="3.4594594594594597" style="fill:blue;shape-rendering:crispEdges;"/>
<rect x="20.756756756756758" y="24.216216216216218" width="3.4594594594594597" height="3.4594594594594597" style="fill:blue;shape-rendering:crispEdges;"/>
<rect x="20.756756756756758" y="27.675675675675677" width="3.4594594594594597" height="3.4594594594594597" style="fill:blue;shape-rendering:crispEdges;"/>
<rect x="20.756756756756758" y="34.5945945945946" width="3.4594594594594597" height="3.4594594594594597" style="fill:blue;shape-rendering:crispEdges;"/>
<rect x="20.756756756756758" y="41.513513513513516" width="3.4594594594594597" height="3.4594594594594597" style="fill:blue;shape-rendering:crispEdges;"/>
<rect x="20.756756756756758" y="44.972972972972975" width="3.4594594594594597" height="3.4594594594594597" style="fill:blue;shape-rendering:crispEdges;"/>
<rect x="20.756756756756758" y="55.351351351351354" width="3.4594594594594597" height="3.4594594594594597" style="fill:blue;shape-rendering:crispEdges;"/>
<rect x="20.756756756756758" y="65.72972972972974" width="3.4594594594594597" height="3.4594594594594597" style="fill:blue;shape-rendering:crispEdges;"/>
<rect x="20.756756756756758" y="76.10810810810811" width="3.4594594594594597" height="3.4594594594594597" style="fill:blue;shape-rendering:crispEdges;"/>
<rect x="20.756756756756758" y="83.02702702702703" width="3.4594594594594597" height="3.4594594594594597" style="fill:blue;shape-rendering:crispEdges;"/>
<rect x="20.756756756756758" y="89.94594594594595" width="3.4594594594594597" height="3.4594594594594597" style="fill:blue;shape-rendering:crispEdges;"/>
<rect x="20.756756756756758" y="96.86486486486487" width="3.4594594594594597" height="3.4594594594594597" style="fill:blue;shape-rendering:crispEdges;"/>
<rect x="20.756756756756758" y="100.32432432432432" width="3.4594594594594597" height="3.4594594594594597" style="fill:blue;shape-rendering:crispEdges;"/>
<rect x="20.756756756756758" y="103.78378378378379" width="3.4594594594594597" height="3.4594594594594597" style="fill:blue;shape-rendering:crispEdges;"/>
<rect x="20.756756756756758" y="110.70270270270271" width="3.4594594594594597" height="3.4594594594594597" style="fill:blue;shape-rendering:crispEdges;"/>
<rect x="24.216216216216218" y="13.837837837837839" width="3.4594594594594597" height="3.4594594594594597" style="fill:blue;shape-rendering:crispEdges;"/>
<rect x="24.216216216216218" y="20.756756756756758" width="3.4594594594594597" height="3.4594594594594597" style="fill:blue;shape-rendering:crispEdges;"/>
<rect x="24.216216216216218" y="24.216216216216218" width="3.4594594594594597" height="3.4594594594594597" style="fill:blue;shape-rendering:crispEdges;"/>
<rect x="24.216216216216218" y="27.675675675675677" width="3.4594594594594597" height="3.4594594594594597" style="fill:blue;shape-rendering:crispEdges;"/>
<rect x="24.216216216216218" y="34.5945945945946" width="3.4594594594594597" height="3.4594594594594597" style="fill:blue;shape-rendering:crispEdges;"/>
<rect x="24.216216216216218" y="41.513513513513516" width="3.4594594594594597" height="3.4594594594594597" style="fill:blue;shape-rendering:crispEdges;"/>
<rect x="24.216216216216218" y="44.972972972972975" width="3.4594594594594597" height="3.4594594594594597" style="fill:blue;shape-rendering:crispEdges;"/>
<rect x="24.216216216216218" y="48.432432432432435" width="3.4594594594594597" height="3.4594594594594597" style="fill:blue;shape-rendering:crispEdges;"/>
<rect x="24.216216216216218" y="58.810810810810814" width="3.4594594594594597" height="3.4594594594594597" style="fill:blue;shape-rendering:crispEdges;"/>
<rect x="24.216216216216218" y="65.72972972972974" width="3.4594594594594597" height="3.4594594594594597" style="fill:blue;shape-rendering:crispEdges;"/>
<rect x="24.216216216216218" y="72.64864864864865" width="3.4594594594594597" height="3.4594594594594597" style="fill:blue;shape-rendering:crispEdges;"/>
<rect x="24.216216216216218" y="79.56756756756758" width="3.4594594594594597" height="3.4594594594594597" style="fill:blue;shape-rendering:crispEdges;"/>
<rect x="24.216216216216218" y="83.02702702702703" width="3.4594594594594597" height="3.4594594594594597" style="fill:blue;shape-rendering:crispEdges;"/>
<rect x="24.216216216216218" y="89.94594594594595" width="3.4594594594594597" height="3.4594594594594597" style="fill:blue;shape-rendering:crispEdges;"/>
<rect x="24.216216216216218" y="96.86486486486487" width="3.4594594594594597" height="3.4594594594594597" style="fill:blue;shape-rendering:crispEdges;"/>
<rect x="24.216216216216218" y="100.32432432432432" width="3.4594594594594597" height="3.4594594594594597" style="fill:blue;shape-rendering:crispEdges;"/>
<rect x="24.216216216216218" y="103.78378378378379" width="3.4594594594594597" height="3.4594594594594597" style="fill:blue;shape-rendering:crispEdges;"/>
<rect x="24.216216216216218" y="110.70270270270271" width="3.4594594594594597" height="3.4594594594594597" style="fill:blue;shape-rendering:crispEdges;"/>
<rect x="27.675675675675677" y="13.837837837837839" width="3.4594594594594597" height="3.4594594594594597" style="fill:blue;shape-rendering:crispEdges;"/>
<rect x="27.675675675675677" y="20.756756756756758" width="3.4594594594594597" height="3.4594594594594597" style="fill:blue;shape-rendering:crispEdges;"/>
<rect x="27.675675675675677" y="24.216216216216218" width="3.4594594594594597" height="3.4594594594594597" style="fill:blue;shape-rendering:crispEdges;"/>
<rect x="27.675675675675677" y="27.675675675675677" width="3.4594594594594597" height="3.4594594594594597" style="fill:blue;shape-rendering:crispEdges;"/>
<rect x="27.675675675675677" y="34.5945945945946" width="3.4594594594594597" height="3.4594594594594597" style="fill:blue;shape-rendering:crispEdges;"/>
<rect x="27.675675675675677" y="48.432432432432435" width="3.4594594594594597" height="3.4594594594594597" style="fill:blue;shape-rendering:crispEdges;"/>
<rect x="27.675675675675677" y="51.891891891891895" width="3.4594594594594597" height="3.4594594594594597" style="fill:blue;shape-rendering:crispEdges;"/>
<rect x="27.675675675675677" y="55.351351351351354" width="3.4594594594594597" height="3.4594594594594597" style="fill:blue;shape-rendering:crispEdges;"/>
<rect x="27.675675675675677" y="58.810810810810814" width="3.4594594594594597" height="3.4594594594594597" style="fill:blue;shape-rendering:crispEdges;"/>
<rect x="27.675675675675677" y="62.270270270270274" width="3.4594594594594597" height="3.4594594594594597" style="fill:blue;shape-rendering:crispEdges;"/>
<rect x="27.675675675675677" y="65.72972972972974" width="3.4594594594594597" height="3.4594594594594597" style="fill:blue;shape-rendering:crispEdges;"/>
<rect x="27.675675675675677" y="69.1891891891892" width="3.4594594594594597" height="3.4594594594594597" style="fill:blue;shape-rendering:crispEdges;"/>
<rect x="27.675675675675677" y="72.64864864864865" width="3.4594594594594597" height="3.4594594594594597" style="fill:blue;shape-rendering:crispEdges;"/>
<rect x="27.675675675675677" y="79.56756756756758" width="3.4594594594594597" height="3.4594594594594597" style="fill:blue;shape-rendering:crispEdges;"/>
<rect x="27.675675675675677" y="89.94594594594595" width="3.4594594594594597" height="3.4594594594594597" style="fill:blue;shape-rendering:crispEdges;"/>
<rect x="27.675675675675677" y="96.86486486486487" width="3.4594594594594597" height="3.4594594594594597" style="fill:blue;shape-rendering:crispEdges;"/>
<rect x="27.675675675675677" y="100.32432432432432" width="3.4594594594594597" height="3.4594594594594597" style="fill:blue;shape-rendering:crispEdges;"/>
<rect x="27.675675675675677" y="103.78378378378379" width="3.4594594594594597" height="3.4594594594594597" style="fill:blue;shape-rendering:crispEdges;"/>
<rect x="27.675675675675677" y="110.70270270270271" width="3.4594594594594597" height="3.4594594594594597" style="fill:blue;shape-rendering:crispEdges;"/>
<rect x="31.135135135135137" y="13.837837837837839" width="3.4594594594594597" height="3.4594594594594597" style="fill:blue;shape-rendering:crispEdges;"/>
<rect x="31.135135135135137" y="34.5945945945946" width="3.4594594594594597" height="3.4594594594594597" style="fill:blue;shape-rendering:crispEdges;"/>
<rect x="31.135135135135137" y="48.432432432432435" width="3.4594594594594597" height="3.4594594594594597" style="fill:blue;shape-rendering:crispEdges;"/>
<rect x="31.135135135135137" y="51.891891891891895" width="3.4594594594594597" height="3.4594594594594597" style="fill:blue;shape-rendering:crispEdges;"/>
<rect x="31.135135135135137" y="65.72972972972974" width="3.4594594594594597" height="3.4594594594594597" style="fill:blue;shape-rendering:crispEdges;"/>
<rect x="31.135135135135137" y="72.64864864864865" width="3.4594594594594597" height="3.4594594594594597" style="fill:blue;shape-rendering:crispEdges;"/>
<rect x="31.135135135135137" y="76.10810810810811" width="3.4594594594594597" height="3.4594594594594597" style="fill:blue;shape-rendering:crispEdges;"/>
<rect x="31.135135135135137" y="89.94594594594595" width="3.4594594594594597" height="3.4594594594594597" style="fill:blue;shape-rendering:crispEdges;"/>
<rect x="31.135135135135137" y="110.70270270270271" width="3.4594594594594597" height="3.4594594594594597" style="fill:blue;shape-rendering:crispEdges;"/>
<rect x="34.5945945945946" y="13.837837837837839" width="3.4594594594594597" height="3.4594594594594597" style="fill:blue;shape-rendering:crispEdges;"/>
<rect x="34.5945945945946" y="17.2972972972973" width="3.4594594594594597" height="3.4594594594594597" style="fill:blue;shape-rendering:crispEdges;"/>
<rect x="34.5945945945946" y="20.756756756756758" width="3.4594594594594597" height="3.4594594594594597" style="fill:blue;shape-rendering:crispEdges;"/>
<rect x="34.5945945945946" y="24.216216216216218" width="3.4594594594594597" height="3.4594594594594597" style="fill:blue;shape-rendering:crispEdges;"/>
<rect x="34.5945945945946" y="27.675675675675677" width="3.4594594594594597" height="3.4594594594594597" style="fill:blue;shape-rendering:crispEdges;"/>
<rect x="34.5945945945946" y="31.135135135135137" width="3.4594594594594597" height="3.4594594594594597" style="fill:blue;shape-rendering:crispEdges;"/>
<rect x="34.5945945945946" y="34.5945945945946" width="3.4594594594594597" height="3.4594594594594597" style="fill:blue;shape-rendering:crispEdges;"/>
<rect x="34.5945945945946" y="41.513513513513516" width="3.4594594594594597" height="3.4594594594594597" style="fill:blue;shape-rendering:crispEdges;"/>
<rect x="34.5945945945946" y="48.432432432432435" width="3.4594594594594597" height="3.4594594594594597" style="fill:blue;shape-rendering:crispEdges;"/>
<rect x="34.5945945945946" y="55.351351351351354" width="3.4594594594594597" height="3.4594594594594597" style="fill:blue;shape-rendering:crispEdges;"/>
<rect x="34.5945945945946" y="62.270270270270274" width="3.4594594594594597" height="3.4594594594594597" style="fill:blue;shape-rendering:crispEdges;"/>
<rect x="34.5945945945946" y="69.1891891891892" width="3.4594594594594597" height="3.4594594594594597" style="fill:blue;shape-rendering:crispEdges;"/>
<rect x="34.5945945945946" y="76.10810810810811" width="3.4594594594594597" height="3.4594594594594597" style="fill:blue;shape-rendering:crispEdges;"/>
<rect x="34.5945945945946" y="83.02702702702703" width="3.4594594594594597" height="3.4594594594594597" style="fill:blue;shape-rendering:crispEdges;"/>
<rect x="34.5945945945946" y="89.94594594594595" width="3.4594594594594597" height="3.4594594594594597" style="fill:blue;shape-rendering:crispEdges;"/>
<rect x="34.5945945945946" y="93.40540540540542" width="3.4594594594594597" height="3.4594594594594597" style="fill:blue;shape-rendering:crispEdges;"/>
<rect x="34.5945945945946" y="96.86486486486487" width="3.4594594594594597" height="3.4594594594594597" style="fill:blue;shape-rendering:crispEdges;"/>
<rect x="34.5945945945946" y="100.32432432432432" width="3.4594594594594597" height="3.4594594594594597" style="fill:blue;shape-rendering:crispEdges;"/>
<rect x="34.5945945945946" y="103.78378378378379" width="3.4594594594594597" height="3.4594594594594597" style="fill:blue;shape-rendering:crispEdges;"/>
<rect x="34.5945945945946" y="107.24324324324326" width="3.4594594594594597" height="3.4594594594594597" style="fill:blue;shape-rendering:crispEdges;"/>
<rect x="34.5945945945946" y="110.70270270270271" width="3.4594594594594597" height="3.4594594594594597" style="fill:blue;shape-rendering:crispEdges;"/>
<rect x="38.054054054054056" y="44.972972972972975" width="3.4594594594594597" height="3.4594594594594597" style="fill:blue;shape-rendering:crispEdges;"/>
<rect x="38.054054054054056" y="55.351351351351354" width="3.4594594594594597" height="3.4594594594594597" style="fill:blue;shape-rendering:crispEdges;"/>
<rect x="38.054054054054056" y="58.810810810810814" width="3.4594594594594597" height="3.4594594594594597" style="fill:blue;shape-rendering:crispEdges;"/>
<rect x="38.054054054054056" y="62.270270270270274" width="3.4594594594594597" height="3.4594594594594597" style="fill:blue;shape-rendering:crispEdges;"/>
<rect x="38.054054054054056" y="79.56756756756758" width="3.4594594594594597" height="3.4594594594594597" style="fill:blue;shape-rendering:crispEdges;"/>
<rect x="41.513513513513516" y="24.216216216216218" width="3.4594594594594597" height="3.4594594594594597" style="fill:blue;shape-rendering:crispEdges;"/>
<rect x="41.513513513513516" y="27.675675675675677" width="3.4594594594594597" height="3.4594594594594597" style="fill:blue;shape-rendering:crispEdges;"/>
<rect x="41.513513513513516" y="34.5945945945946" width="3.4594594594594597" height="3.4594594594594597" style="fill:blue;shape-rendering:crispEdges;"/>
<rect x="41.513513513513516" y="38.054054054054056" width="3.4594594594594597" height="3.4594594594594597" style="fill:blue;shape-rendering:crispEdges;"/>
<rect x="41.513513513513516" y="44.972972972972975" width="3.4594594594594597" height="3.4594594594594597" style="fill:blue;shape-rendering:crispEdges;"/>
<rect x="41.513513513513516" y="55.351351351351354" width="3.4594594594594597" height="3.4594594594594597" style="fill:blue;shape-rendering:crispEdges;"/>
<rect x="41.513513513513516" y="65.72972972972974" width="3.4594594594594597" height="3.4594594594594597" style="fill:blue;shape-rendering:crispEdges;"/>
<rect x="41.513513513513516" y="69.1891891891892" width="3.4594594594594597" height="3.4594594594594597" style="fill:blue;shape-rendering:crispEdges;"/>
<rect x="41.513513513513516" y="76.10810810810811" width="3.4594594594594597" height="3.4594594594594597" style="fill:blue;shape-rendering:crispEdges;"/>
<rect x="41.513513513513516" y="79.56756756756758" width="3.4594594594594597" height="3.4594594594594597" style="fill:blue;shape-rendering:crispEdges;"/>
<rect x="41.513513513513516" y="83.02702702702703" width="3.4594594594594597" height="3.4594594594594597" style="fill:blue;shape-rendering:crispEdges;"/>
<rect x="41.513513513513516" y="100.32432432432432" width="3.4594594594594597" height="3.4594594594594597" style="fill:blue;shape-rendering:crispEdges;"/>
<rect x="41.513513513513516" y="103.78378378378379" width="3.4594594594594597" height="3.4594594594594597" style="fill:blue;shape-rendering:crispEdges;"/>
<rect x="44.972972972972975" y="20.756756756756758" width="3.4594594594594597" height="3.4594594594594597" style="fill:blue;shape-rendering:crispEdges;"/>
<rect x="44.972972972972975" y="24.216216216216218" width="3.4594594594594597" height="3.4594594594594597" style="fill:blue;shape-rendering:crispEdges;"/>
<rect x="44.972972972972975" y="27.675675675675677" width="3.4594594594594597" height="3.4594594594594597" style="fill:blue;shape-rendering:crispEdges;"/>
<rect x="44.972972972972975" y="31.135135135135137" width="3.4594594594594597" height="3.4594594594594597" style="fill:blue;shape-rendering:crispEdges;"/>
<rect x="44.972972972972975" y="44.972972972972975" width="3.4594594594594597" height="3.4594594594594597" style="fill:blue;shape-rendering:crispEdges;"/>
<rect x="44.972972972972975" y="55.351351351351354" width="3.4594594594594597" height="3.4594594594594597" style="fill:blue;shape-rendering:crispEdges;"/>
<rect x="44.972972972972975" y="58.810810810810814" width="3.4594594594594597" height="3.4594594594594597" style="fill:blue;shape-rendering:crispEdges;"/>
<rect x="44.972972972972975" y="62.270270270270274" width="3.4594594594594597" height="3.4594594594594597" style="fill:blue;shape-rendering:crispEdges;"/>
<rect x="44.972972972972975" y="69.1891891891892" width="3.4594594594594597" height="3.4594594594594597" style="fill:blue;shape-rendering:crispEdges;"/>
<rect x="44.972972972972975" y="83.02702702702703" width="3.4594594594594597" height="3.4594594594594597" style="fill:blue;shape-rendering:crispEdges;"/>
<rect x="44.972972972972975" y="89.94594594594595" width="3.4594594594594597" height="3.4594594594594597" style="fill:blue;shape-rendering:crispEdges;"/>
<rect x="44.972972972972975" y="96.86486486486487" width="3.4594594594594597" height="3.4594594594594597" style="fill:blue;shape-rendering:crispEdges;"/>
<rect x="44.972972972972975" y="100.32432432432432" width="3.4594594594594597" height="3.4594594594594597" style="fill:blue;shape-rendering:crispEdges;"/>
<rect x="44.972972972972975" y="107.24324324324326" width="3.4594594594594597" height="3.4594594594594597" style="fill:blue;shape-rendering:crispEdges;"/>
<rect x="48.432432432432435" y="17.2972972972973" width="3.4594594594594597" height="3.4594594594594597" style="fill:blue;shape-rendering:crispEdges;"/>
<rect x="48.432432432432435" y="24.216216216216218" width="3.4594594594594597" height="3.4594594594594597" style="fill:blue;shape-rendering:crispEdges;"/>
<rect x="48.432432432432435" y="34.5945945945946" width="3.4594594594594597" height="3.4594594594594597" style="fill:blue;shape-rendering:crispEdges;"/>
<rect x="48.432432432432435" y="41.513513513513516" width="3.4594594594594597" height="3.4594594594594597" style="fill:blue;shape-rendering:crispEdges;"/>
<rect x="48.432432432432435" y="58.810810810810814" width="3.4594594594594597" height="3.4594594594594597" style="fill:blue;shape-rendering:crispEdges;"/>
<rect x="48.432432432432435" y="76.10810810810811" width="3.4594594594594597" height="3.4594594594594597" style="fill:blue;shape-rendering:crispEdges;"/>
<rect x="48.432432432432435" y="89.94594594594595" width="3.4594594594594597" height="3.4594594594594597" style="fill:blue;shape-rendering:crispEdges;"/>
<rect x="51.891891891891895" y="17.2972972972973" width="3.4594594594594597" height="3.4594594594594597" style="fill:blue;shape-rendering:crispEdges;"/>
<rect x="51.891891891891895" y="20.756756756756758" width="3.4594594594594597" height="3.4594594594594597" style="fill:blue;shape-rendering:crispEdges;"/>
<rect x="51.891891891891895" y="24.216216216216218" width="3.4594594594594597" height="3.4594594594594597" style="fill:blue;shape-rendering:crispEdges;"/>
<rect x="51.891891891891895" y="31.135135135135137" width="3.4594594594594597" height="3.4594594594594597" style="fill:blue;shape-rendering:crispEdges;"/>
<rect x="51.891891891891895" y="38.054054054054056" width="3.4594594594594597" height="3.4594594594594597" style="fill:blue;shape-rendering:crispEdges;"/>
<rect x="51.891891891891895" y="41.513513513513516" width="3.4594594594594597" height="3.4594594594594597" style="fill:blue;shape-rendering:crispEdges;"/>
<rect x="51.891891891891895" y="44.972972972972975" width="3.4594594594594597" height="3.4594594594594597" style="fill:blue;shape-rendering:crispEdges;"/>
<rect x="51.891891891891895" y="55.351351351351354" width="3.4594594594594597" height="3.4594594594594597" style="fill:blue;shape-rendering:crispEdges;"/>
<rect x="51.891891891891895" y="58.810810810810814" width="3.4594594594594597" height="3.4594594594594597" style="fill:blue;shape-rendering:crispEdges;"/>
<rect x="51.891891891891895" y="62.270270270270274" width="3.4594594594594597" height="3.4594594594594597" style="fill:blue;shape-rendering:crispEdges;"/>
<rect x="51.891891891891895" y="69.1891891891892" width="3.4594594594594597" height="3.4594594594594597" style="fill:blue;shape-rendering:crispEdges;"/>
<rect x="51.891891891891895" y="76.10810810810811" width="3.4594594594594597" height="3.4594594594594597" style="fill:blue;shape-rendering:crispEdges;"/>
<rect x="51.891891891891895" y="86.48648648648648" width="3.4594594594594597" height="3.4594594594594597" style="fill:blue;shape-rendering:crispEdges;"/>
<rect x="51.891891891891895" y="100.32432432432432" width="3.4594594594594597" height="3.4594594594594597" style="fill:blue;shape-rendering:crispEdges;"/>
<rect x="51.891891891891895" y="110.70270270270271" width="3.4594594594594597" height="3.4594594594594597" style="fill:blue;shape-rendering:crispEdges;"/>
<rect x="55.351351351351354" y="27.675675675675677" width="3.4594594594594597" height="3.4594594594594597" style="fill:blue;shape-rendering:crispEdges;"/>
<rect x="55.351351351351354" y="34.5945945945946" width="3.4594594594594597" height="3.4594594594594597" style="fill:blue;shape-rendering:crispEdges;"/>
<rect x="55.351351351351354" y="38.054054054054056" width="3.4594594594594597" height="3.4594594594594597" style="fill:blue;shape-rendering:crispEdges;"/>
<rect x="55.351351351351354" y="41.513513513513516" width="3.4594594594594597" height="3.4594594594594597" style="fill:blue;shape-rendering:crispEdges;"/>
<rect x="55.351351351351354" y="44.972972972972975" width="3.4594594594594597" height="3.4594594594594597" style="fill:blue;shape-rendering:crispEdges;"/>
<rect x="55.351351351351354" y="48.432432432432435" width="3.4594594594594597" height="3.4594594594594597" style="fill:blue;shape-rendering:crispEdges;"/>
<rect x="55.351351351351354" y="58.810810810810814" width="3.4594594594594597" height="3.4594594594594597" style="fill:blue;shape-rendering:crispEdges;"/>
<rect x="55.351351351351354" y="65.72972972972974" width="3.4594594594594597" height="3.4594594594594597" style="fill:blue;shape-rendering:crispEdges;"/>
<rect x="55.351351351351354" y="72.64864864864865" width="3.4594594594594597" height="3.4594594594594597" style="fill:blue;shape-rendering:crispEdges;"/>
<rect x="55.351351351351354" y="79.56756756756758" width="3.4594594594594597" height="3.4594594594594597" style="fill:blue;shape-rendering:crispEdges;"/>
<rect x="55.351351351351354" y="86.48648648648648" width="3.4594594594594597" height="3.4594594594594597" style="fill:blue;shape-rendering:crispEdges;"/>
<rect x="55.351351351351354" y="89.94594594594595" width="3.4594594594594597" height="3.4594594594594597" style="fill:blue;shape-rendering:crispEdges;"/>
<rect x="55.351351351351354" y="93.40540540540542" width="3.4594594594594597" height="3.4594594594594597" style="fill:blue;shape-rendering:crispEdges;"/>
<rect x="55.351351351351354" y="100.32432432432432" width="3.4594594594594597" height="3.4594594594594597" style="fill:blue;shape-rendering:crispEdges;"/>
<rect x="55.351351351351354" y="107.24324324324326" width="3.4594594594594597" height="3.4594594594594597" style="fill:blue;shape-rendering:crispEdges;"/>
<rect x="58.810810810810814" y="17.2972972972973" width="3.4594594594594597" height="3.4594594594594597" style="fill:blue;shape-rendering:crispEdges;"/>
<rect x="58.810810810810814" y="20.756756756756758" width="3.4594594594594597" height="3.4594594594594597" style="fill:blue;shape-rendering:crispEdges;"/>
<rect x="58.810810810810814" y="27.675675675675677" width="3.4594594594594597" height="3.4594594594594597" style="fill:blue;shape-rendering:crispEdges;"/>
<rect x="58.810810810810814" y="31.135135135135137" width="3.4594594594594597" height="3.4594594594594597" style="fill:blue;shape-rendering:crispEdges;"/>
<rect x="58.810810810810814" y="58.810810810810814" width="3.4594594594594597" height="3.4594594594594597" style="fill:blue;shape-rendering:crispEdges;"/>
<rect x="58.810810810810814" y="62.270270270270274" width="3.4594594594594597" height="3.4594594594594597" style="fill:blue;shape-rendering:crispEdges;"/>
<rect x="58.810810810810814" y="72.64864864864865" width="3.4594594594594597" height="3.4594594594594597" style="fill:blue;shape-rendering:crispEdges;"/>
<rect x="58.810810810810814" y="89.94594594594595" width="3.4594594594594597" height="3.4594594594594597" style="fill:blue;shape-rendering:crispEdges;"/>
<rect x="58.810810810810814" y="96.86486486486487" width="3.4594594594594597" height="3.4594594594594597" style="fill:blue;shape-rendering:crispEdges;"/>
<rect x="58.810810810810814" y="103.78378378378379" width="3.4594594594594597" height="3.4594594594594597" style="fill:blue;shape-rendering:crispEdges;"/>
<rect x="58.810810810810814" y="110.70270270270271" width="3.4594594594594597" height="3.4594594594594597" style="fill:blue;shape-rendering:crispEdges;"/>
<rect x="62.270270270270274" y="13.837837837837839" width="3.4594594594594597" height="3.4594594594594597" style="fill:blue;shape-rendering:crispEdges;"/>
<rect x="62.270270270270274" y="20.756756756756758" width="3.4594594594594597" height="3.4594594594594597" style="fill:blue;shape-rendering:crispEdges;"/>
<rect x="62.270270270270274" y="24.216216216216218" width="3.4594594594594597" height="3.4594594594594597" style="fill:blue;shape-rendering:crispEdges;"/>
<rect x="62.270270270270274" y="31.135135135135137" width="3.4594594594594597" height="3.4594594594594597" style="fill:blue;shape-rendering:crispEdges;"/>
<rect x="62.270270270270274" y="34.5945945945946" width="3.4594594594594597" height="3.4594594594594597" style="fill:blue;shape-rendering:crispEdges;"/>
<rect x="62.270270270270274" y="38.054054054054056" width="3.4594594594594597" height="3.4594594594594597" style="fill:blue;shape-rendering:crispEdges;"/>
<rect x="62.270270270270274" y="41.513513513513516" width="3.4594594594594597" height="3.4594594594594597" style="fill:blue;shape-rendering:crispEdges;"/>
<rect x="62.270270270270274" y="55.351351351351354" width="3.4594594594594597" height="3.4594594594594597" style="fill:blue;shape-rendering:crispEdges;"/>
<rect x="62.270270270270274" y="58.810810810810814" width="3.4594594594594597" height="3.4594594594594597" style="fill:blue;shape-rendering:crispEdges;"/>
<rect x="62.270270270270274" y="76.10810810810811" width="3.4594594594594597" height="3.4594594594594597" style="fill:blue;shape-rendering:crispEdges;"/>
<rect x="62.270270270270274" y="79.56756756756758" width="3.4594594594594597" height="3.4594594594594597" style="fill:blue;shape-rendering:crispEdges;"/>
<rect x="62.270270270270274" y="83.02702702702703" width="3.4594594594594597" height="3.4594594594594597" style="fill:blue;shape-rendering:crispEdges;"/>
<rect x="62.270270270270274" y="100.32432432432432" width="3.4594594594594597" height="3.4594594594594597" style="fill:blue;shape-rendering:crispEdges;"/>
<rect x="62.270270270270274" y="107.24324324324326" width="3.4594594594594597" height="3.4594594594594597" style="fill:blue;shape-rendering:crispEdges;"/>
<rect x="62.270270270270274" y="110.70270270270271" width="3.4594594594594597" height="3.4594594594594597" style="fill:blue;shape-rendering:crispEdges;"/>
<rect x="65.72972972972974" y="13.837837837837839" width="3.4594594594594597" height="3.4594594594594597" style="fill:blue;shape-rendering:crispEdges;"/>
<rect x="65.72972972972974" y="20.756756756756758" width="3.4594594594594597" height="3.4594594594594597" style="fill:blue;shape-rendering:crispEdges;"/>
<rect x="65.72972972972974" y="31.135135135135137" width="3.4594594594594597" height="3.4594594594594597" style="fill:blue;shape-rendering:crispEdges;"/>
<rect x="65.72972972972974" y="48.432432432432435" width="3.4594594594594597" height="3.4594594594594597" style="fill:blue;shape-rendering:crispEdges;"/>
<rect x="65.72972972972974" y="58.810810810810814" width="3.4594594594594597" height="3.4594594594594597" style="fill:blue;shape-rendering:crispEdges;"/>
<rect x="65.72972972972974" y="72.64864864864865" width="3.4594594594594597" height="3.4594594594594597" style="fill:blue;shape-rendering:crispEdges;"/>
<rect x="65.72972972972974" y="76.10810810810811" width="3.4594594594594597" height="3.4594594594594597" style="fill:blue;shape-rendering:crispEdges;"/>
<rect x="65.72972972972974" y="83.02702702702703" width="3.4594594594594597" height="3.4594594594594597" style="fill:blue;shape-rendering:crispEdges;"/>
<rect x="65.72972972972974" y="100.32432432432432" width="3.4594594594594597" height="3.4594594594594597" style="fill:blue;shape-rendering:crispEdges;"/>
<rect x="65.72972972972974" y="103.78378378378379" width="3.4594594594594597" height="3.4594594594594597" style="fill:blue;shape-rendering:crispEdges;"/>
<rect x="69.1891891891892" y="24.216216216216218" width="3.4594594594594597" height="3.4594594594594597" style="fill:blue;shape-rendering:crispEdges;"/>
<rect x="69.1891891891892" y="27.675675675675677" width="3.4594594594594597" height="3.4594594594594597" style="fill:blue;shape-rendering:crispEdges;"/>
<rect x="69.1891891891892" y="31.135135135135137" width="3.4594594594594597" height="3.4594594594594597" style="fill:blue;shape-rendering:crispEdges;"/>
<rect x="69.1891891891892" y="34.5945945945946" width="3.4594594594594597" height="3.4594594594594597" style="fill:blue;shape-rendering:crispEdges;"/>
<rect x="69.1891891891892" y="41.513513513513516" width="3.4594594594594597" height="3.4594594594594597" style="fill:blue;shape-rendering:crispEdges;"/>
<rect x="69.1891891891892" y="48.432432432432435" width="3.4594594594594597" height="3.4594594594594597" style="fill:blue;shape-rendering:crispEdges;"/>
<rect x="69.1891891891892" y="55.351351351351354" width="3.4594594594594597" height="3.4594594594594597" style="fill:blue;shape-rendering:crispEdges;"/>
<rect x="69.1891891891892" y="58.810810810810814" width="3.4594594594594597" height="3.4594594594594597" style="fill:blue;shape-rendering:crispEdges;"/>
<rect x="69.1891891891892" y="62.270270270270274" width="3.4594594594594597" height="3.4594594594594597" style="fill:blue;shape-rendering:crispEdges;"/>
<rect x="69.1891891891892" y="76.10810810810811" width="3.4594594594594597" height="3.4594594594594597" style="fill:blue;shape-rendering:crispEdges;"/>
<rect x="69.1891891891892" y="79.56756756756758" width="3.4594594594594597" height="3.4594594594594597" style="fill:blue;shape-rendering:crispEdges;"/>
<rect x="69.1891891891892" y="83.02702702702703" width="3.4594594594594597" height="3.4594594594594597" style="fill:blue;shape-rendering:crispEdges;"/>
<rect x="69.1891891891892" y="89.94594594594595" width="3.4594594594594597" height="3.4594594594594597" style="fill:blue;shape-rendering:crispEdges;"/>
<rect x="69.1891891891892" y="93.40540540540542" width="3.4594594594594597" height="3.4594594594594597" style="fill:blue;shape-rendering:crispEdges;"/>
<rect x="69.1891891891892" y="100.32432432432432" width="3.4594594594594597" height="3.4594594594594597" style="fill:blue;shape-rendering:crispEdges;"/>
<rect x="69.1891891891892" y="107.24324324324326" width="3.4594594594594597" height="3.4594594594594597" style="fill:blue;shape-rendering:crispEdges;"/>
<rect x="72.64864864864865" y="13.837837837837839" width="3.4594594594594597" height="3.4594594594594597" style="fill:blue;shape-rendering:crispEdges;"/>
<rect x="72.64864864864865" y="17.2972972972973" width="3.4594594594594597" height="3.4594594594594597" style="fill:blue;shape-rendering:crispEdges;"/>
<rect x="72.64864864864865" y="20.756756756756758" width="3.4594594594594597" height="3.4594594594594597" style="fill:blue;shape-rendering:crispEdges;"/>
<rect x="72.64864864864865" y="24.216216216216218" width="3.4594594594594597" height="3.4594594594594597" style="fill:blue;shape-rendering:crispEdges;"/>
<rect x="72.64864864864865" y="44.972972972972975" width="3.4594594594594597" height="3.4594594594594597" style="fill:blue;shape-rendering:crispEdges;"/>
<rect x="72.64864864864865" y="51.891891891891895" width="3.4594594594594597" height="3.4594594594594597" style="fill:blue;shape-rendering:crispEdges;"/>
<rect x="72.64864864864865" y="69.1891891891892" width="3.4594594594594597" height="3.4594594594594597" style="fill:blue;shape-rendering:crispEdges;"/>
<rect x="72.64864864864865" y="72.64864864864865" width="3.4594594594594597" height="3.4594594594594597" style="fill:blue;shape-rendering:crispEdges;"/>
<rect x="72.64864864864865" y="76.10810810810811" width="3.4594594594594597" height="3.4594594594594597" style="fill:blue;shape-rendering:crispEdges;"/>
<rect x="72.64864864864865" y="83.02702702702703" width="3.4594594594594597" height="3.4594594594594597" style="fill:blue;shape-rendering:crispEdges;"/>
<rect x="72.64864864864865" y="89.94594594594595" width="3.4594594594594597" height="3.4594594594594597" style="fill:blue;shape-rendering:crispEdges;"/>
<rect x="72.64864864864865" y="93.40540540540542" width="3.4594594594594597" height="3.4594594594594597" style="fill:blue;shape-rendering:crispEdges;"/>
<rect x="72.64864864864865" y="96.86486486486487" width="3.4594594594594597" height="3.4594594594594597" style="fill:blue;shape-rendering:crispEdges;"/>
<rect x="76.10810810810811" y="13.837837837837839" width="3.4594594594594597" height="3.4594594594594597" style="fill:blue;shape-rendering:crispEdges;"/>
<rect x="76.10810810810811" y="17.2972972972973" width="3.4594594594594597" height="3.4594594594594597" style="fill:blue;shape-rendering:crispEdges;"/>
<rect x="76.10810810810811" y="24.216216216216218" width="3.4594594594594597" height="3.4594594594594597" style="fill:blue;shape-rendering:crispEdges;"/>
<rect x="76.10810810810811" y="27.675675675675677" width="3.4594594594594597" height="3.4594594594594597" style="fill:blue;shape-rendering:crispEdges;"/>
<rect x="76.10810810810811" y="34.5945945945946" width="3.4594594594594597" height="3.4594594594594597" style="fill:blue;shape-rendering:crispEdges;"/>
<rect x="76.10810810810811" y="48.432432432432435" width="3.4594594594594597" height="3.4594594594594597" style="fill:blue;shape-rendering:crispEdges;"/>
<rect x="76.10810810810811" y="55.351351351351354" width="3.4594594594594597" height="3.4594594594594597" style="fill:blue;shape-rendering:crispEdges;"/>
<rect x="76.10810810810811" y="65.72972972972974" width="3.4594594594594597" height="3.4594594594594597" style="fill:blue;shape-rendering:crispEdges;"/>
<rect x="76.10810810810811" y="83.02702702702703" width="3.4594594594594597" height="3.4594594594594597" style="fill:blue;shape-rendering:crispEdges;"/>
<rect x="76.10810810810811" y="96.86486486486487" width="3.4594594594594597" height="3.4594594594594597" style="fill:blue;shape-rendering:crispEdges;"/>
<rect x="76.10810810810811" y="110.70270270270271" width="3.4594594594594597" height="3.4594594594594597" style="fill:blue;shape-rendering:crispEdges;"/>
<rect x="79.56756756756758" y="13.837837837837839" width="3.4594594594594597" height="3.4594594594594597" style="fill:blue;shape-rendering:crispEdges;"/>
<rect x="79.56756756756758" y="17.2972972972973" width="3.4594594594594597" height="3.4594594594594597" style="fill:blue;shape-rendering:crispEdges;"/>
<rect x="79.56756756756758" y="20.756756756756758" width="3.4594594594594597" height="3.4594594594594597" style="fill:blue;shape-rendering:crispEdges;"/>
<rect x="79.56756756756758" y="24.216216216216218" width="3.4594594594594597" height="3.4594594594594597" style="fill:blue;shape-rendering:crispEdges;"/>
<rect x="79.56756756756758" y="27.675675675675677" width="3.4594594594594597" height="3.4594594594594597" style="fill:blue;shape-rendering:crispEdges;"/>
<rect x="79.56756756756758" y="31.135135135135137" width="3.4594594594594597" height="3.4594594594594597" style="fill:blue;shape-rendering:crispEdges;"/>
<rect x="79.56756756756758" y="38.054054054054056" width="3.4594594594594597" height="3.4594594594594597" style="fill:blue;shape-rendering:crispEdges;"/>
<rect x="79.56756756756758" y="41.513513513513516" width="3.4594594594594597" height="3.4594594594594597" style="fill:blue;shape-rendering:crispEdges;"/>
<rect x="79.56756756756758" y="48.432432432432435" width="3.4594594594594597" height="3.4594594594594597" style="fill:blue;shape-rendering:crispEdges;"/>
<rect x="79.56756756756758" y="55.351351351351354" width="3.4594594594594597" height="3.4594594594594597" style="fill:blue;shape-rendering:crispEdges;"/>
<rect x="79.56756756756758" y="58.810810810810814" width="3.4594594594594597" height="3.4594594594594597" style="fill:blue;shape-rendering:crispEdges;"/>
<rect x="79.56756756756758" y="65.72972972972974" width="3.4594594594594597" height="3.4594594594594597" style="fill:blue;shape-rendering:crispEdges;"/>
<rect x="79.56756756756758" y="86.48648648648648" width="3.4594594594594597" height="3.4594594594594597" style="fill:blue;shape-rendering:crispEdges;"/>
<rect x="79.56756756756758" y="89.94594594594595" width="3.4594594594594597" height="3.4594594594594597" style="fill:blue;shape-rendering:crispEdges;"/>
<rect x="79.56756756756758" y="93.40540540540542" width="3.4594594594594597" height="3.4594594594594597" style="fill:blue;shape-rendering:crispEdges;"/>
<rect x="79.56756756756758" y="103.78378378378379" width="3.4594594594594597" height="3.4594594594594597" style="fill:blue;shape-rendering:crispEdges;"/>
<rect x="79.56756756756758" y="110.70270270270271" width="3.4594594594594597" height="3.4594594594594597" style="fill:blue;shape-rendering:crispEdges;"/>
<rect x="83.02702702702703" y="13.837837837837839" width="3.4594594594594597" height="3.4594594594594597" style="fill:blue;shape-rendering:crispEdges;"/>
<rect x="83.02702702702703" y="17.2972972972973" width="3.4594594594594597" height="3.4594594594594597" style="fill:blue;shape-rendering:crispEdges;"/>
<rect x="83.02702702702703" y="20.756756756756758" width="3.4594594594594597" height="3.4594594594594597" style="fill:blue;shape-rendering:crispEdges;"/>
<rect x="83.02702702702703" y="31.135135135135137" width="3.4594594594594597" height="3.4594594594594597" style="fill:blue;shape-rendering:crispEdges;"/>
<rect x="83.02702702702703" y="34.5945945945946" width="3.4594594594594597" height="3.4594594594594597" style="fill:blue;shape-rendering:crispEdges;"/>
<rect x="83.02702702702703" y="48.432432432432435" width="3.4594594594594597" height="3.4594594594594597" style="fill:blue;shape-rendering:crispEdges;"/>
<rect x="83.02702702702703" y="51.891891891891895" width="3.4594594594594597" height="3.4594594594594597" style="fill:blue;shape-rendering:crispEdges;"/>
<rect x="83.02702702702703" y="55.351351351351354" width="3.4594594594594597" height="3.4594594594594597" style="fill:blue;shape-rendering:crispEdges;"/>
<rect x="83.02702702702703" y="76.10810810810811" width="3.4594594594594597" height="3.4594594594594597" style="fill:blue;shape-rendering:crispEdges;"/>
<rect x="83.02702702702703" y="83.02702702702703" width="3.4594594594594597" height="3.4594594594594597" style="fill:blue;shape-rendering:crispEdges;"/>
<rect x="83.02702702702703" y="86.48648648648648" width="3.4594594594594597" height="3.4594594594594597" style="fill:blue;shape-rendering:crispEdges;"/>
<rect x="83.02702702702703" y="89.94594594594595" width="3.4594594594594597" height="3.4594594594594597" style="fill:blue;shape-rendering:crispEdges;"/>
<rect x="83.02702702702703" y="93.40540540540542" width="3.4594594594594597" height="3.4594594594594597" style="fill:blue;shape-rendering:crispEdges;"/>
<rect x="83.02702702702703" y="96.86486486486487" width="3.4594594594594597" height="3.4594594594594597" style="fill:blue;shape-rendering:crispEdges;"/>
<rect x="83.02702702702703" y="100.32432432432432" width="3.4594594594594597" height="3.4594594594594597" style="fill:blue;shape-rendering:crispEdges;"/>
<rect x="83.02702702702703" y="103.78378378378379" width="3.4594594594594597" height="3.4594594594594597" style="fill:blue;shape-rendering:crispEdges;"/>
<rect x="83.02702702702703" y="107.24324324324326" width="3.4594594594594597" height="3.4594594594594597" style="fill:blue;shape-rendering:crispEdges;"/>
<rect x="83.02702702702703" y="110.70270270270271" width="3.4594594594594597" height="3.4594594594594597" style="fill:blue;shape-rendering:crispEdges;"/>
<rect x="86.48648648648648" y="41.513513513513516" width="3.4594594594594597" height="3.4594594594594597" style="fill:blue;shape-rendering:crispEdges;"/>
<rect x="86.48648648648648" y="48.432432432432435" width="3.4594594594594597" height="3.4594594594594597" style="fill:blue;shape-rendering:crispEdges;"/>
<rect x="86.48648648648648" y="58.810810810810814" width="3.4594594594594597" height="3.4594594594594597" style="fill:blue;shape-rendering:crispEdges;"/>
<rect x="86.48648648648648" y="62.270270270270274" width="3.4594594594594597" height="3.4594594594594597" style="fill:blue;shape-rendering:crispEdges;"/>
<rect x="86.48648648648648" y="83.02702702702703" width="3.4594594594594597" height="3.4594594594594597" style="fill:blue;shape-rendering:crispEdges;"/>
<rect x="86.48648648648648" y="96.86486486486487" width="3.4594594594594597" height="3.4594594594594597" style="fill:blue;shape-rendering:crispEdges;"/>
<rect x="86.48648648648648" y="100.32432432432432" width="3.4594594594594597" height="3.4594594594594597" style="fill:blue;shape-rendering:crispEdges;"/>
<rect x="86.48648648648648" y="103.78378378378379" width="3.4594594594594597" height="3.4594594594594597" style="fill:blue;shape-rendering:crispEdges;"/>
<rect x="89.94594594594595" y="13.837837837837839" width="3.4594594594594597" height="3.4594594594594597" style="fill:blue;shape-rendering:crispEdges;"/>
<rect x="89.94594594594595" y="17.2972972972973" width="3.4594594594594597" height="3.4594594594594597" style="fill:blue;shape-rendering:crispEdges;"/>
<rect x="89.94594594594595" y="20.756756756756758" width="3.4594594594594597" height="3.4594594594594597" style="fill:blue;shape-rendering:crispEdges;"/>
<rect x="89.94594594594595" y="24.216216216216218" width="3.4594594594594597" height="3.4594594594594597" style="fill:blue;shape-rendering:crispEdges;"/>
<rect x="89.94594594594595" y="27.675675675675677" width="3.4594594594594597" height="3.4594594594594597" style="fill:blue;shape-rendering:crispEdges;"/>
<rect x="89.94594594594595" y="31.135135135135137" width="3.4594594594594597" height="3.4594594594594597" style="fill:blue;shape-rendering:crispEdges;"/>
<rect x="89.94594594594595" y="34.5945945945946" width="3.4594594594594597" height="3.4594594594594597" style="fill:blue;shape-rendering:crispEdges;"/>
<rect x="89.94594594594595" y="41.513513513513516" width="3.4594594594594597" height="3.4594594594594597" style="fill:blue;shape-rendering:crispEdges;"/>
<rect x="89.94594594594595" y="51.891891891891895" width="3.4594594594594597" height="3.4594594594594597" style="fill:blue;shape-rendering:crispEdges;"/>
<rect x="89.94594594594595" y="55.351351351351354" width="3.4594594594594597" height="3.4594594594594597" style="fill:blue;shape-rendering:crispEdges;"/>
<rect x="89.94594594594595" y="79.56756756756758" width="3.4594594594594597" height="3.4594594594594597" style="fill:blue;shape-rendering:crispEdges;"/>
<rect x="89.94594594594595" y="83.02702702702703" width="3.4594594594594597" height="3.4594594594594597" style="fill:blue;shape-rendering:crispEdges;"/>
<rect x="89.94594594594595" y="89.94594594594595" width="3.4594594594594597" height="3.4594594594594597" style="fill:blue;shape-rendering:crispEdges;"/>
<rect x="89.94594594594595" y="96.86486486486487" width="3.4594594594594597" height="3.4594594594594597" style="fill:blue;shape-rendering:crispEdges;"/>
<rect x="89.94594594594595" y="103.78378378378379" width="3.4594594594594597" height="3.4594594594594597" style="fill:blue;shape-rendering:crispEdges;"/>
<rect x="93.40540540540542" y="13.837837837837839" width="3.4594594594594597" height="3.4594594594594597" style="fill:blue;shape-rendering:crispEdges;"/>
<rect x="93.40540540540542" y="34.5945945945946" width="3.4594594594594597" height="3.4594594594594597" style="fill:blue;shape-rendering:crispEdges;"/>
<rect x="93.40540540540542" y="48.432432432432435" width="3.4594594594594597" height="3.4594594594594597" style="fill:blue;shape-rendering:crispEdges;"/>
<rect x="93.40540540540542" y="51.891891891891895" width="3.4594594594594597" height="3.4594594594594597" style="fill:blue;shape-rendering:crispEdges;"/>
<rect x="93.40540540540542" y="55.351351351351354" width="3.4594594594594597" height="3.4594594594594597" style="fill:blue;shape-rendering:crispEdges;"/>
<rect x="93.40540540540542" y="58.810810810810814" width="3.4594594594594597" height="3.4594594594594597" style="fill:blue;shape-rendering:crispEdges;"/>
<rect x="93.40540540540542" y="69.1891891891892" width="3.4594594594594597" height="3.4594594594594597" style="fill:blue;shape-rendering:crispEdges;"/>
<rect x="93.40540540540542" y="76.10810810810811" width="3.4594594594594597" height="3.4594594594594597" style="fill:blue;shape-rendering:crispEdges;"/>
<rect x="93.40540540540542" y="79.56756756756758" width="3.4594594594594597" height="3.4594594594594597" style="fill:blue;shape-rendering:crispEdges;"/>
<rect x="93.40540540540542" y="83.02702702702703" width="3.4594594594594597" height="3.4594594594594597" style="fill:blue;shape-rendering:crispEdges;"/>
<rect x="93.40540540540542" y="96.86486486486487" width="3.4594594594594597" height="3.4594594594594597" style="fill:blue;shape-rendering:crispEdges;"/>
<rect x="93.40540540540542" y="100.32432432432432" width="3.4594594594594597" height="3.4594594594594597" style="fill:blue;shape-rendering:crispEdges;"/>
<rect x="93.40540540540542" y="107.24324324324326" width="3.4594594594594597" height="3.4594594594594597" style="fill:blue;shape-rendering:crispEdges;"/>
<rect x="93.40540540540542" y="110.70270270270271" width="3.4594594594594597" height="3.4594594594594597" style="fill:blue;shape-rendering:crispEdges;"/>
<rect x="96.86486486486487" y="13.837837837837839" width="3.4594594594594597" height="3.4594594594594597" style="fill:blue;shape-rendering:crispEdges;"/>
<rect x="96.86486486486487" y="20.756756756756758" width="3.4594594594594597" height="3.4594594594594597" style="fill:blue;shape-rendering:crispEdges;"/>
<rect x="96.86486486486487" y="24.216216216216218" width="3.4594594594594597" height="3.4594594594594597" style="fill:blue;shape-rendering:crispEdges;"/>
<rect x="96.86486486486487" y="27.675675675675677" width="3.4594594594594597" height="3.4594594594594597" style="fill:blue;shape-rendering:crispEdges;"/>
<rect x="96.86486486486487" y="34.5945945945946" width="3.4594594594594597" height="3.4594594594594597" style="fill:blue;shape-rendering:crispEdges;"/>
<rect x="96.86486486486487" y="41.513513513513516" width="3.4594594594594597" height="3.4594594594594597" style="fill:blue;shape-rendering:crispEdges;"/>
<rect x="96.86486486486487" y="44.972972972972975" width="3.4594594594594597" height="3.4594594594594597" style="fill:blue;shape-rendering:crispEdges;"/>
<rect x="96.86486486486487" y="55.351351351351354" width="3.4594594594594597" height="3.4594594594594597" style="fill:blue;shape-rendering:crispEdges;"/>
<rect x="96.86486486486487" y="72.64864864864865" width="3.4594594594594597" height="3.4594594594594597" style="fill:blue;shape-rendering:crispEdges;"/>
<rect x="96.86486486486487" y="76.10810810810811" width="3.4594594594594597" height="3.4594594594594597" style="fill:blue;shape-rendering:crispEdges;"/>
<rect x="96.86486486486487" y="79.56756756756758" width="3.4594594594594597" height="3.4594594594594597" style="fill:blue;shape-rendering:crispEdges;"/>
<rect x="96.86486486486487" y="83.02702702702703" width="3.4594594594594597" height="3.4594594594594597" style="fill:blue;shape-rendering:crispEdges;"/>
<rect x="96.86486486486487" y="86.48648648648648" width="3.4594594594594597" height="3.4594594594594597" style="fill:blue;shape-rendering:crispEdges;"/>
<rect x="96.86486486486487" y="89.94594594594595" width="3.4594594594594597" height="3.4594594594594597" style="fill:blue;shape-rendering:crispEdges;"/>
<rect x="96.86486486486487" y="93.40540540540542" width="3.4594594594594597" height="3.4594594594594597" style="fill:blue;shape-rendering:crispEdges;"/>
<rect x="96.86486486486487" y="96.86486486486487" width="3.4594594594594597" height="3.4594594594594597" style="fill:blue;shape-rendering:crispEdges;"/>
<rect x="96.86486486486487" y="110.70270270270271" width="3.4594594594594597" height="3.4594594594594597" style="fill:blue;shape-rendering:crispEdges;"/>
<rect x="100.32432432432432" y="13.837837837837839" width="3.4594594594594597" height="3.4594594594594597" style="fill:blue;shape-rendering:crispEdges;"/>
<rect x="100.32432432432432" y="20.756756756756758" width="3.4594594594594597" height="3.4594594594594597" style="fill:blue;shape-rendering:crispEdges;"/>
<rect x="100.32432432432432" y="24.216216216216218" width="3.4594594594594597" height="3.4594594594594597" style="fill:blue;shape-rendering:crispEdges;"/>
<rect x="100.32432432432432" y="27.675675675675677" width="3.4594594594594597" height="3.4594594594594597" style="fill:blue;shape-rendering:crispEdges;"/>
<rect x="100.32432432432432" y="34.5945945945946" width="3.4594594594594597" height="3.4594594594594597" style="fill:blue;shape-rendering:crispEdges;"/>
<rect x="100.32432432432432" y="41.513513513513516" width="3.4594594594594597" height="3.4594594594594597" style="fill:blue;shape-rendering:crispEdges;"/>
<rect x="100.32432432432432" y="48.432432432432435" width="3.4594594594594597" height="3.4594594594594597" style="fill:blue;shape-rendering:crispEdges;"/>
<rect x="100.32432432432432" y="51.891891891891895" width="3.4594594594594597" height="3.4594594594594597" style="fill:blue;shape-rendering:crispEdges;"/>
<rect x="100.32432432432432" y="55.351351351351354" width="3.4594594594594597" height="3.4594594594594597" style="fill:blue;shape-rendering:crispEdges;"/>
<rect x="100.32432432432432" y="58.810810810810814" width="3.4594594594594597" height="3.4594594594594597" style="fill:blue;shape-rendering:crispEdges;"/>
<rect x="100.32432432432432" y="62.270270270270274" width="3.4594594594594597" height="3.4594594594594597" style="fill:blue;shape-rendering:crispEdges;"/>
<rect x="100.32432432432432" y="69.1891891891892" width="3.4594594594594597" height="3.4594594594594597" style="fill:blue;shape-rendering:crispEdges;"/>
<rect x="100.32432432432432" y="86.48648648648648" width="3.4594594594594597" height="3.4594594594594597" style="fill:blue;shape-rendering:crispEdges;"/>
<rect x="100.32432432432432" y="93.40540540540542" width="3.4594594594594597" height="3.4594594594594597" style="fill:blue;shape-rendering:crispEdges;"/>
<rect x="100.32432432432432" y="107.24324324324326" width="3.4594594594594597" height="3.4594594594594597" style="fill:blue;shape-rendering:crispEdges;"/>
<rect x="103.78378378378379" y="13.837837837837839" width="3.4594594594594597" height="3.4594594594594597" style="fill:blue;shape-rendering:crispEdges;"/>
<rect x="103.78378378378379" y="20.756756756756758" width="3.4594594594594597" height="3.4594594594594597" style="fill:blue;shape-rendering:crispEdges;"/>
<rect x="103.78378378378379" y="24.216216216216218" width="3.4594594594594597" height="3.4594594594594597" style="fill:blue;shape-rendering:crispEdges;"/>
<rect x="103.78378378378379" y="27.675675675675677" width="3.4594594594594597" height="3.4594594594594597" style="fill:blue;shape-rendering:crispEdges;"/>
<rect x="103.78378378378379" y="34.5945945945946" width="3.4594594594594597" height="3.4594594594594597" style="fill:blue;shape-rendering:crispEdges;"/>
<rect x="103.78378378378379" y="48.432432432432435" width="3.4594594594594597" height="3.4594594594594597" style="fill:blue;shape-rendering:crispEdges;"/>
<rect x="103.78378378378379" y="51.891891891891895" width="3.4594594594594597" height="3.4594594594594597" style="fill:blue;shape-rendering:crispEdges;"/>
<rect x="103.78378378378379" y="55.351351351351354" width="3.4594594594594597" height="3.4594594594594597" style="fill:blue;shape-rendering:crispEdges;"/>
<rect x="103.78378378378379" y="65.72972972972974" width="3.4594594594594597" height="3.4594594594594597" style="fill:blue;shape-rendering:crispEdges;"/>
<rect x="103.78378378378379" y="86.48648648648648" width="3.4594594594594597" height="3.4594594594594597" style="fill:blue;shape-rendering:crispEdges;"/>
<rect x="103.78378378378379" y="96.86486486486487" width="3.4594594594594597" height="3.4594594594594597" style="fill:blue;shape-rendering:crispEdges;"/>
<rect x="103.78378378378379" y="103.78378378378379" width="3.4594594594594597" height="3.4594594594594597" style="fill:blue;shape-rendering:crispEdges;"/>
<rect x="103.78378378378379" y="107.24324324324326" width="3.4594594594594597" height="3.4594594594594597" style="fill:blue;shape-rendering:crispEdges;"/>
<rect x="103.78378378378379" y="110.70270270270271" width="3.4594594594594597" height="3.4594594594594597" style="fill:blue;shape-rendering:crispEdges;"/>
<rect x="107.24324324324326" y="13.837837837837839" width="3.4594594594594597" height="3.4594594594594597" style="fill:blue;shape-rendering:crispEdges;"/>
<rect x="107.24324324324326" y="34.5945945945946" width="3.4594594594594597" height="3.4594594594594597" style="fill:blue;shape-rendering:crispEdges;"/>
<rect x="107.24324324324326" y="44.972972972972975" width="3.4594594594594597" height="3.4594594594594597" style="fill:blue;shape-rendering:crispEdges;"/>
<rect x="107.24324324324326" y="55.351351351351354" width="3.4594594594594597" height="3.4594594594594597" style="fill:blue;shape-rendering:crispEdges;"/>
<rect x="107.24324324324326" y="62.270270270270274" width="3.4594594594594597" height="3.4594594594594597" style="fill:blue;shape-rendering:crispEdges;"/>
<rect x="107.24324324324326" y="79.56756756756758" width="3.4594594594594597" height="3.4594594594594597" style="fill:blue;shape-rendering:crispEdges;"/>
<rect x="107.24324324324326" y="83.02702702702703" width="3.4594594594594597" height="3.4594594594594597" style="fill:blue;shape-rendering:crispEdges;"/>
<rect x="107.24324324324326" y="89.94594594594595" width="3.4594594594594597" height="3.4594594594594597" style="fill:blue;shape-rendering:crispEdges;"/>
<rect x="107.24324324324326" y="96.86486486486487" width="3.4594594594594597" height="3.4594594594594597" style="fill:blue;shape-rendering:crispEdges;"/>
<rect x="107.24324324324326" y="100.32432432432432" width="3.4594594594594597" height="3.4594594594594597" style="fill:blue;shape-rendering:crispEdges;"/>
<rect x="107.24324324324326" y="103.78378378378379" width="3.4594594594594597" height="3.4594594594594597" style="fill:blue;shape-rendering:crispEdges;"/>
<rect x="107.24324324324326" y="110.70270270270271" width="3.4594594594594597" height="3.4594594594594597" style="fill:blue;shape-rendering:crispEdges;"/>
<rect x="110.70270270270271" y="13.837837837837839" width="3.4594594594594597" height="3.4594594594594597" style="fill:blue;shape-rendering:crispEdges;"/>
<rect x="110.70270270270271" y="17.2972972972973" width="3.4594594594594597" height="3.4594594594594597" style="fill:blue;shape-rendering:crispEdges;"/>
<rect x="110.70270270270271" y="20.756756756756758" width="3.4594594594594597" height="3.4594594594594597" style="fill:blue;shape-rendering:crispEdges;"/>
<rect x="110.70270270270271" y="24.216216216216218" width="3.4594594594594597" height="3.4594594594594597" style="fill:blue;shape-rendering:crispEdges;"/>
<rect x="110.70270270270271" y="27.675675675675677" width="3.4594594594594597" height="3.4594594594594597" style="fill:blue;shape-rendering:crispEdges;"/>
<rect x="110.70270270270271" y="31.135135135135137" width="3.4594594594594597" height="3.4594594594594597" style="fill:blue;shape-rendering:crispEdges;"/>
<rect x="110.70270270270271" y="34.5945945945946" width="3.4594594594594597" height="3.4594594594594597" style="fill:blue;shape-rendering:crispEdges;"/>
<rect x="110.70270270270271" y="44.972972972972975" width="3.4594594594594597" height="3.4594594594594597" style="fill:blue;shape-rendering:crispEdges;"/>
<rect x="110.70270270270271" y="62.270270270270274" width="3.4594594594594597" height="3.4594594594594597" style="fill:blue;shape-rendering:crispEdges;"/>
<rect x="110.70270270270271" y="69.1891891891892" width="3.4594594594594597" height="3.4594594594594597" style="fill:blue;shape-rendering:crispEdges;"/>
<rect x="110.70270270270271" y="76.10810810810811" width="3.4594594594594597" height="3.4594594594594597" style="fill:blue;shape-rendering:crispEdges;"/>
<rect x="110.70270270270271" y="83.02702702702703" width="3.4594594594594597" height="3.4594594594594597" style="fill:blue;shape-rendering:crispEdges;"/>
<rect x="110.70270270270271" y="93.40540540540542" width="3.4594594594594597" height="3.4594594594594597" style="fill:blue;shape-rendering:crispEdges;"/>
<rect x="110.70270270270271" y="96.86486486486487" width="3.4594594594594597" height="3.4594594594594597" style="fill:blue;shape-rendering:crispEdges;"/>
</svg>