<?xml version="1.0" standalone="yes"?>
<svg xmlns="http://www.w3.org/2000/svg" version="1.1" width="256" height="256">
<rect x="0" y="0" width="256" height="256" style="fill:#ffffff;shape-rendering:crispEdges;"/>
<rect x="31.03030303030303" y="31.03030303030303" width="7.757575757575758" height="7.757575757575758" style="fill:#000000;shape-rendering:crispEdges;"/>
<rect x="31.03030303030303" y="38.78787878787879" width="7.757575757575758" height="7.757575757575758" style="fill:#000000;shape-rendering:crispEdges;"/>
<rect x="31.03030303030303" y="46.54545454545455" width="7.757575757575758" height="7.757575757575758" style="fill:#000000;shape-rendering:crispEdges;"/>
<rect x="31.03030303030303" y="54.303030303030305" width="7.757575757575758" height="7.757575757575758" style="fill:#000000;shape-rendering:crispEdges;"/>
<rect x="31.03030303030303" y="62.06060606060606" width="7.757575757575758" height="7.757575757575758" style="fill:#000000;shape-rendering:crispEdges;"/>
<rect x="31.03030303030303" y="69.81818181818181" width="7.757575757575758" height="7.757575757575758" style="fill:#000000;shape-rendering:crispEdges;"/>
<rect x="31.03030303030303" y="77.57575757575758" width="7.757575757575758" height="7.757575757575758" style="fill:#000000;shape-rendering:crispEdges;"/>
<rect x="31.03030303030303" y="93.0909090909091" width="7.757575757575758" height="7.757575757575758" style="fill:#000000;shape-rendering:crispEdges;"/>
<rect x="31.03030303030303" y="131.87878787878788" width="7.757575757575758" height="7.757575757575758" style="fill:#000000;shape-rendering:crispEdges;"/>
<rect x="31.03030303030303" y="139.63636363636363" width="7.757575757575758" height="7.757575757575758" style="fill:#000000;shape-rendering:crispEdges;"/>
<rect x="31.03030303030303" y="147.3939393939394" width="7.757575757575758" height="7.757575757575758" style="fill:#000000;shape-rendering:crispEdges;"/>
<rect x="31.03030303030303" y="170.66666666666666" width="7.757575757575758" height="7.757575757575758" style="fill:#000000;shape-rendering:crispEdges;"/>
<rect x="31.03030303030303" y="178.42424242424244" width="7.757575757575758" height="7.757575757575758" style="fill:#000000;shape-rendering:crispEdges;"/>
<rect x="31.03030303030303" y="186.1818181818182" width="7.757575757575758" height="7.757575757575758" style="fill:#000000;shape-rendering:crispEdges;"/>
<rect x="31.03030303030303" y="193.93939393939394" width="7.757575757575758" height="7.757575757575758" style="fill:#000000;shape-rendering:crispEdges;"/>
<rect x="31.03030303030303" y="201.69696969696972" width="7.757575757575758" height="7.757575757575758" style="fill:#000000;shape-rendering:crispEdges;"/>
<rect x="31.03030303030303" y="209.45454545454547" width="7.757575757575758" height="7.757575757575758" style="fill:#000000;shape-rendering:crispEdges;"/>
<rect x="31.03030303030303" y="217.21212121212122" width="7.757575757575758" height="7.757575757575758" style="fill:#000000;shape-rendering:crispEdges;"/>
<rect x="38.78787878787879" y="31.03030303030303" width="7.757575757575758" height="7.757575757575758" style="fill:#000000;shape-rendering:crispEdges;"/>
<rect x="38.78787878787879" y="77.57575757575758" width="7.757575757575758" height="7.757575757575758" style="fill:#000000;shape-rendering:crispEdges;"/>
<rect x="38.78787878787879" y="108.60606060606061" width="7.757575757575758" height="7.757575757575758" style="fill:#000000;shape-rendering:crispEdges;"/>
<rect x="38.78787878787879" y="116.36363636363637" width="7.757575757575758" height="7.757575757575758" style="fill:#000000;shape-rendering:crispEdges;"/>
<rect x="38.78787878787879" y="124.12121212121212" width="7.757575757575758" height="7.757575757575758" style="fill:#000000;shape-rendering:crispEdges;"/>
<rect x="38.78787878787879" y="147.3939393939394" width="7.757575757575758" height="7.757575757575758" style="fill:#000000;shape-rendering:crispEdges;"/>
<rect x="38.78787878787879" y="170.66666666666666" width="7.757575757575758" height="7.757575757575758" style="fill:#000000;shape-rendering:crispEdges;"/>
<rect x="38.78787878787879" y="217.21212121212122" width="7.757575757575758" height="7.757575757575758" style="fill:#000000;shape-rendering:crispEdges;"/>
<rect x="46.54545454545455" y="31.03030303030303" width="7.757575757575758" height="7.757575757575758" style="fill:#000000;shape-rendering:crispEdges;"/>
<rect x="46.54545454545455" y="46.54545454545455" width="7.757575757575758" height="7.757575757575758" style="fill:#000000;shape-rendering:crispEdges;"/>
<rect x="46.54545454545455" y="54.303030303030305" width="7.757575757575758" height="7.757575757575758" style="fill:#000000;shape-rendering:crispEdges;"/>
<rect x="46.54545454545455" y="62.06060606060606" width="7.757575757575758" height="7.757575757575758" style="fill:#000000;shape-rendering:crispEdges;"/>
<rect x="46.54545454545455" y="77.57575757575758" width="7.757575757575758" height="7.757575757575758" style="fill:#000000;shape-rendering:crispEdges;"/>
<rect x="46.54545454545455" y="93.0909090909091" width="7.757575757575758" height="7.757575757575758" style="fill:#000000;shape-rendering:crispEdges;"/>
<rect x="46.54545454545455" y="124.12121212121212" width="7.757575757575758" height="7.757575757575758" style="fill:#000000;shape-rendering:crispEdges;"/>
<rect x="46.54545454545455" y="131.87878787878788" width="7.757575757575758" height="7.757575757575758" style="fill:#000000;shape-rendering:crispEdges;"/>
<rect x="46.54545454545455" y="170.66666666666666" width="7.757575757575758" height="7.757575757575758" style="fill:#000000;shape-rendering:crispEdges;"/>
<rect x="46.54545454545455" y="186.1818181818182" width="7.757575757575758" height="7.757575757575758" style="fill:#000000;shape-rendering:crispEdges;"/>
<rect x="46.54545454545455" y="193.93939393939394" width="7.757575757575758" height="7.757575757575758" style="fill:#000000;shape-rendering:crispEdges;"/>
<rect x="46.54545454545455" y="201.69696969696972" width="7.757575757575758" height="7.757575757575758" style="fill:#000000;shape-rendering:crispEdges;"/>
<rect x="46.54545454545455" y="217.21212121212122" width="7.757575757575758" height="7.757575757575758" style="fill:#000000;shape-rendering:crispEdges;"/>
<rect x="54.303030303030305" y="31.03030303030303" width="7.757575757575758" height="7.757575757575758" style="fill:#000000;shape-rendering:crispEdges;"/>
<rect x="54.303030303030305" y="46.54545454545455" width="7.757575757575758" height="7.757575757575758" style="fill:#000000;shape-rendering:crispEdges;"/>
<rect x="54.303030303030305" y="54.303030303030305" width="7.757575757575758" height="7.757575757575758" style="fill:#000000;shape-rendering:crispEdges;"/>
<rect x="54.303030303030305" y="62.06060606060606" width="7.757575757575758" height="7.757575757575758" style="fill:#000000;shape-rendering:crispEdges;"/>
<rect x="54.303030303030305" y="77.57575757575758" width="7.757575757575758" height="7.757575757575758" style="fill:#000000;shape-rendering:crispEdges;"/>
<rect x="54.303030303030305" y="100.84848484848484" width="7.757575757575758" height="7.757575757575758" style="fill:#000000;shape-rendering:crispEdges;"/>
<rect x="54.303030303030305" y="116.36363636363637" width="7.757575757575758" height="7.757575757575758" style="fill:#000000;shape-rendering:crispEdges;"/>
<rect x="54.303030303030305" y="147.3939393939394" width="7.757575757575758" height="7.757575757575758" style="fill:#000000;shape-rendering:crispEdges;"/>
<rect x="54.303030303030305" y="155.15151515151516" width="7.757575757575758" height="7.757575757575758" style="fill:#000000;shape-rendering:crispEdges;"/>
<rect x="54.303030303030305" y="170.66666666666666" width="7.757575757575758" height="7.757575757575758" style="fill:#000000;shape-rendering:crispEdges;"/>
<rect x="54.303030303030305" y="186.1818181818182" width="7.757575757575758" height="7.757575757575758" style="fill:#000000;shape-rendering:crispEdges;"/>
<rect x="54.303030303030305" y="193.93939393939394" width="7.757575757575758" height="7.757575757575758" style="fill:#000000;shape-rendering:crispEdges;"/>
<rect x="54.303030303030305" y="201.69696969696972" width="7.757575757575758" height="7.757575757575758" style="fill:#000000;shape-rendering:crispEdges;"/>
<rect x="54.303030303030305" y="217.21212121212122" width="7.757575757575758" height="7.757575757575758" style="fill:#000000;shape-rendering:crispEdges;"/>
<rect x="62.06060606060606" y="31.03030303030303" width="7.757575757575758" height="7.757575757575758" style="fill:#000000;shape-rendering:crispEdges;"/>
<rect x="62.06060606060606" y="46.54545454545455" width="7.757575757575758" height="7.757575757575758" style="fill:#000000;shape-rendering:crispEdges;"/>
<rect x="62.06060606060606" y="54.303030303030305" width="7.757575757575758" height="7.757575757575758" style="fill:#000000;shape-rendering:crispEdges;"/>
<rect x="62.06060606060606" y="62.06060606060606" width="7.757575757575758" height="7.757575757575758" style="fill:#000000;shape-rendering:crispEdges;"/>
<rect x="62.06060606060606" y="77.57575757575758" width="7.757575757575758" height="7.757575757575758" style="fill:#000000;shape-rendering:crispEdges;"/>
<rect x="62.06060606060606" y="108.60606060606061" width="7.757575757575758" height="7.757575757575758" style="fill:#000000;shape-rendering:crispEdges;"/>
<rect x="62.06060606060606" y="116.36363636363637" width="7.757575757575758" height="7.757575757575758" style="fill:#000000;shape-rendering:crispEdges;"/>
<rect x="62.06060606060606" y="147.3939393939394" width="7.757575757575758" height="7.757575757575758" style="fill:#000000;shape-rendering:crispEdges;"/>
<rect x="62.06060606060606" y="155.15151515151516" width="7.757575757575758" height="7.757575757575758" style="fill:#000000;shape-rendering:crispEdges;"/>
<rect x="62.06060606060606" y="170.66666666666666" width="7.757575757575758" height="7.757575757575758" style="fill:#000000;shape-rendering:crispEdges;"/>
<rect x="62.06060606060606" y="186.1818181818182" width="7.757575757575758" height="7.757575757575758" style="fill:#000000;shape-rendering:crispEdges;"/>
<rect x="62.06060606060606" y="193.93939393939394" width="7.757575757575758" height="7.757575757575758" style="fill:#000000;shape-rendering:crispEdges;"/>
<rect x="62.06060606060606" y="201.69696969696972" width="7.757575757575758" height="7.757575757575758" style="fill:#000000;shape-rendering:crispEdges;"/>
<rect x="62.06060606060606" y="217.21212121212122" width="7.757575757575758" height="7.757575757575758" style="fill:#000000;shape-rendering:crispEdges;"/>
<rect x="69.81818181818181" y="31.03030303030303" width="7.757575757575758" height="7.757575757575758" style="fill:#000000;shape-rendering:crispEdges;"/>
<rect x="69.81818181818181" y="77.57575757575758" width="7.757575757575758" height="7.757575757575758" style="fill:#000000;shape-rendering:crispEdges;"/>
<rect x="69.81818181818181" y="93.0909090909091" width="7.757575757575758" height="7.757575757575758" style="fill:#000000;shape-rendering:crispEdges;"/>
<rect x="69.81818181818181" y="100.84848484848484" width="7.757575757575758" height="7.757575757575758" style="fill:#000000;shape-rendering:crispEdges;"/>
<rect x="69.81818181818181" y="124.12121212121212" width="7.757575757575758" height="7.757575757575758" style="fill:#000000;shape-rendering:crispEdges;"/>
<rect x="69.81818181818181" y="131.87878787878788" width="7.757575757575758" height="7.757575757575758" style="fill:#000000;shape-rendering:crispEdges;"/>
<rect x="69.81818181818181" y="139.63636363636363" width="7.757575757575758" height="7.757575757575758" style="fill:#000000;shape-rendering:crispEdges;"/>
<rect x="69.81818181818181" y="155.15151515151516" width="7.757575757575758" height="7.757575757575758" style="fill:#000000;shape-rendering:crispEdges;"/>
<rect x="69.81818181818181" y="170.66666666666666" width="7.757575757575758" height="7.757575757575758" style="fill:#000000;shape-rendering:crispEdges;"/>
<rect x="69.81818181818181" y="217.21212121212122" width="7.757575757575758" height="7.757575757575758" style="fill:#000000;shape-rendering:crispEdges;"/>
<rect x="77.57575757575758" y="31.03030303030303" width="7.757575757575758" height="7.757575757575758" style="fill:#000000;shape-rendering:crispEdges;"/>
<rect x="77.57575757575758" y="38.78787878787879" width="7.757575757575758" height="7.757575757575758" style="fill:#000000;shape-rendering:crispEdges;"/>
<rect x="77.57575757575758" y="46.54545454545455" width="7.757575757575758" height="7.757575757575758" style="fill:#000000;shape-rendering:crispEdges;"/>
<rect x="77.57575757575758" y="54.303030303030305" width="7.757575757575758" height="7.757575757575758" style="fill:#000000;shape-rendering:crispEdges;"/>
<rect x="77.57575757575758" y="62.06060606060606" width="7.757575757575758" height="7.757575757575758" style="fill:#000000;shape-rendering:crispEdges;"/>
<rect x="77.57575757575758" y="69.81818181818181" width="7.757575757575758" height="7.757575757575758" style="fill:#000000;shape-rendering:crispEdges;"/>
<rect x="77.57575757575758" y="77.57575757575758" width="7.757575757575758" height="7.757575757575758" style="fill:#000000;shape-rendering:crispEdges;"/>
<rect x="77.57575757575758" y="93.0909090909091" width="7.757575757575758" height="7.757575757575758" style="fill:#000000;shape-rendering:crispEdges;"/>
<rect x="77.57575757575758" y="108.60606060606061" width="7.757575757575758" height="7.757575757575758" style="fill:#000000;shape-rendering:crispEdges;"/>
<rect x="77.57575757575758" y="124.12121212121212" width="7.757575757575758" height="7.757575757575758" style="fill:#000000;shape-rendering:crispEdges;"/>
<rect x="77.57575757575758" y="139.63636363636363" width="7.757575757575758" height="7.757575757575758" style="fill:#000000;shape-rendering:crispEdges;"/>
<rect x="77.57575757575758" y="155.15151515151516" width="7.757575757575758" height="7.757575757575758" style="fill:#000000;shape-rendering:crispEdges;"/>
<rect x="77.57575757575758" y="170.66666666666666" width="7.757575757575758" height="7.757575757575758" style="fill:#000000;shape-rendering:crispEdges;"/>
<rect x="77.57575757575758" y="178.42424242424244" width="7.757575757575758" height="7.757575757575758" style="fill:#000000;shape-rendering:crispEdges;"/>
<rect x="77.57575757575758" y="186.1818181818182" width="7.757575757575758" height="7.757575757575758" style="fill:#000000;shape-rendering:crispEdges;"/>
<rect x="77.57575757575758" y="193.93939393939394" width="7.757575757575758" height="7.757575757575758" style="fill:#000000;shape-rendering:crispEdges;"/>
<rect x="77.57575757575758" y="201.69696969696972" width="7.757575757575758" height="7.757575757575758" style="fill:#000000;shape-rendering:crispEdges;"/>
<rect x="77.57575757575758" y="209.45454545454547" width="7.757575757575758" height="7.757575757575758" style="fill:#000000;shape-rendering:crispEdges;"/>
<rect x="77.57575757575758" y="217.21212121212122" width="7.757575757575758" height="7.757575757575758" style="fill:#000000;shape-rendering:crispEdges;"/>
<rect x="85.33333333333334" y="108.60606060606061" width="7.757575757575758" height="7.757575757575758" style="fill:#000000;shape-rendering:crispEdges;"/>
<rect x="85.33333333333334" y="116.36363636363637" width="7.757575757575758" height="7.757575757575758" style="fill:#000000;shape-rendering:crispEdges;"/>
<rect x="85.33333333333334" y="124.12121212121212" width="7.757575757575758" height="7.757575757575758" style="fill:#000000;shape-rendering:crispEdges;"/>
<rect x="85.33333333333334" y="131.87878787878788" width="7.757575757575758" height="7.757575757575758" style="fill:#000000;shape-rendering:crispEdges;"/>
<rect x="93.0909090909091" y="31.03030303030303" width="7.757575757575758" height="7.757575757575758" style="fill:#000000;shape-rendering:crispEdges;"/>
<rect x="93.0909090909091" y="46.54545454545455" width="7.757575757575758" height="7.757575757575758" style="fill:#000000;shape-rendering:crispEdges;"/>
<rect x="93.0909090909091" y="77.57575757575758" width="7.757575757575758" height="7.757575757575758" style="fill:#000000;shape-rendering:crispEdges;"/>
<rect x="93.0909090909091" y="85.33333333333334" width="7.757575757575758" height="7.757575757575758" style="fill:#000000;shape-rendering:crispEdges;"/>
<rect x="93.0909090909091" y="100.84848484848484" width="7.757575757575758" height="7.757575757575758" style="fill:#000000;shape-rendering:crispEdges;"/>
<rect x="93.0909090909091" y="116.36363636363637" width="7.757575757575758" height="7.757575757575758" style="fill:#000000;shape-rendering:crispEdges;"/>
<rect x="93.0909090909091" y="124.12121212121212" width="7.757575757575758" height="7.757575757575758" style="fill:#000000;shape-rendering:crispEdges;"/>
<rect x="93.0909090909091" y="131.87878787878788" width="7.757575757575758" height="7.757575757575758" style="fill:#000000;shape-rendering:crispEdges;"/>
<rect x="93.0909090909091" y="147.3939393939394" width="7.757575757575758" height="7.757575757575758" style="fill:#000000;shape-rendering:crispEdges;"/>
<rect x="93.0909090909091" y="155.15151515151516" width="7.757575757575758" height="7.757575757575758" style="fill:#000000;shape-rendering:crispEdges;"/>
<rect x="93.0909090909091" y="178.42424242424244" width="7.757575757575758" height="7.757575757575758" style="fill:#000000;shape-rendering:crispEdges;"/>
<rect x="93.0909090909091" y="201.69696969696972" width="7.757575757575758" height="7.757575757575758" style="fill:#000000;shape-rendering:crispEdges;"/>
<rect x="93.0909090909091" y="217.21212121212122" width="7.757575757575758" height="7.757575757575758" style="fill:#000000;shape-rendering:crispEdges;"/>
<rect x="100.84848484848484" y="31.03030303030303" width="7.757575757575758" height="7.757575757575758" style="fill:#000000;shape-rendering:crispEdges;"/>
<rect x="100.84848484848484" y="38.78787878787879" width="7.757575757575758" height="7.757575757575758" style="fill:#000000;shape-rendering:crispEdges;"/>
<rect x="100.84848484848484" y="46.54545454545455" width="7.757575757575758" height="7.757575757575758" style="fill:#000000;shape-rendering:crispEdges;"/>
<rect x="100.84848484848484" y="62.06060606060606" width="7.757575757575758" height="7.757575757575758" style="fill:#000000;shape-rendering:crispEdges;"/>
<rect x="100.84848484848484" y="69.81818181818181" width="7.757575757575758" height="7.757575757575758" style="fill:#000000;shape-rendering:crispEdges;"/>
<rect x="100.84848484848484" y="85.33333333333334" width="7.757575757575758" height="7.757575757575758" style="fill:#000000;shape-rendering:crispEdges;"/>
<rect x="100.84848484848484" y="100.84848484848484" width="7.757575757575758" height="7.757575757575758" style="fill:#000000;shape-rendering:crispEdges;"/>
<rect x="100.84848484848484" y="116.36363636363637" width="7.757575757575758" height="7.757575757575758" style="fill:#000000;shape-rendering:crispEdges;"/>
<rect x="100.84848484848484" y="155.15151515151516" width="7.757575757575758" height="7.757575757575758" style="fill:#000000;shape-rendering:crispEdges;"/>
<rect x="100.84848484848484" y="170.66666666666666" width="7.757575757575758" height="7.757575757575758" style="fill:#000000;shape-rendering:crispEdges;"/>
<rect x="100.84848484848484" y="178.42424242424244" width="7.757575757575758" height="7.757575757575758" style="fill:#000000;shape-rendering:crispEdges;"/>
<rect x="100.84848484848484" y="193.93939393939394" width="7.757575757575758" height="7.757575757575758" style="fill:#000000;shape-rendering:crispEdges;"/>
<rect x="100.84848484848484" y="201.69696969696972" width="7.757575757575758" height="7.757575757575758" style="fill:#000000;shape-rendering:crispEdges;"/>
<rect x="100.84848484848484" y="217.21212121212122" width="7.757575757575758" height="7.757575757575758" style="fill:#000000;shape-rendering:crispEdges;"/>
<rect x="108.60606060606061" y="38.78787878787879" width="7.757575757575758" height="7.757575757575758" style="fill:#000000;shape-rendering:crispEdges;"/>
<rect x="108.60606060606061" y="77.57575757575758" width="7.757575757575758" height="7.757575757575758" style="fill:#000000;shape-rendering:crispEdges;"/>
<rect x="108.60606060606061" y="131.87878787878788" width="7.757575757575758" height="7.757575757575758" style="fill:#000000;shape-rendering:crispEdges;"/>
<rect x="108.60606060606061" y="139.63636363636363" width="7.757575757575758" height="7.757575757575758" style="fill:#000000;shape-rendering:crispEdges;"/>
<rect x="108.60606060606061" y="155.15151515151516" width="7.757575757575758" height="7.757575757575758" style="fill:#000000;shape-rendering:crispEdges;"/>
<rect x="108.60606060606061" y="178.42424242424244" width="7.757575757575758" height="7.757575757575758" style="fill:#000000;shape-rendering:crispEdges;"/>
<rect x="108.60606060606061" y="193.93939393939394" width="7.757575757575758" height="7.757575757575758" style="fill:#000000;shape-rendering:crispEdges;"/>
<rect x="108.60606060606061" y="201.69696969696972" width="7.757575757575758" height="7.757575757575758" style="fill:#000000;shape-rendering:crispEdges;"/>
<rect x="108.60606060606061" y="217.21212121212122" width="7.757575757575758" height="7.757575757575758" style="fill:#000000;shape-rendering:crispEdges;"/>
<rect x="116.36363636363637" y="38.78787878787879" width="7.757575757575758" height="7.757575757575758" style="fill:#000000;shape-rendering:crispEdges;"/>
<rect x="116.36363636363637" y="93.0909090909091" width="7.757575757575758" height="7.757575757575758" style="fill:#000000;shape-rendering:crispEdges;"/>
<rect x="116.36363636363637" y="100.84848484848484" width="7.757575757575758" height="7.757575757575758" style="fill:#000000;shape-rendering:crispEdges;"/>
<rect x="116.36363636363637" y="108.60606060606061" width="7.757575757575758" height="7.757575757575758" style="fill:#000000;shape-rendering:crispEdges;"/>
<rect x="116.36363636363637" y="116.36363636363637" width="7.757575757575758" height="7.757575757575758" style="fill:#000000;shape-rendering:crispEdges;"/>
<rect x="116.36363636363637" y="139.63636363636363" width="7.757575757575758" height="7.757575757575758" style="fill:#000000;shape-rendering:crispEdges;"/>
<rect x="116.36363636363637" y="147.3939393939394" width="7.757575757575758" height="7.757575757575758" style="fill:#000000;shape-rendering:crispEdges;"/>
<rect x="116.36363636363637" y="155.15151515151516" width="7.757575757575758" height="7.757575757575758" style="fill:#000000;shape-rendering:crispEdges;"/>
<rect x="116.36363636363637" y="193.93939393939394" width="7.757575757575758" height="7.757575757575758" style="fill:#000000;shape-rendering:crispEdges;"/>
<rect x="116.36363636363637" y="209.45454545454547" width="7.757575757575758" height="7.757575757575758" style="fill:#000000;shape-rendering:crispEdges;"/>
<rect x="124.12121212121212" y="38.78787878787879" width="7.757575757575758" height="7.757575757575758" style="fill:#000000;shape-rendering:crispEdges;"/>
<rect x="124.12121212121212" y="46.54545454545455" width="7.757575757575758" height="7.757575757575758" style="fill:#000000;shape-rendering:crispEdges;"/>
<rect x="124.12121212121212" y="69.81818181818181" width="7.757575757575758" height="7.757575757575758" style="fill:#000000;shape-rendering:crispEdges;"/>
<rect x="124.12121212121212" y="77.57575757575758" width="7.757575757575758" height="7.757575757575758" style="fill:#000000;shape-rendering:crispEdges;"/>
<rect x="124.12121212121212" y="116.36363636363637" width="7.757575757575758" height="7.757575757575758" style="fill:#000000;shape-rendering:crispEdges;"/>
<rect x="124.12121212121212" y="131.87878787878788" width="7.757575757575758" height="7.757575757575758" style="fill:#000000;shape-rendering:crispEdges;"/>
<rect x="124.12121212121212" y="139.63636363636363" width="7.757575757575758" height="7.757575757575758" style="fill:#000000;shape-rendering:crispEdges;"/>
<rect x="124.12121212121212" y="170.66666666666666" width="7.757575757575758" height="7.757575757575758" style="fill:#000000;shape-rendering:crispEdges;"/>
<rect x="124.12121212121212" y="193.93939393939394" width="7.757575757575758" height="7.757575757575758" style="fill:#000000;shape-rendering:crispEdges;"/>
<rect x="124.12121212121212" y="217.21212121212122" width="7.757575757575758" height="7.757575757575758" style="fill:#000000;shape-rendering:crispEdges;"/>
<rect x="131.87878787878788" y="46.54545454545455" width="7.757575757575758" height="7.757575757575758" style="fill:#000000;shape-rendering:crispEdges;"/>
<rect x="131.87878787878788" y="62.06060606060606" width="7.757575757575758" height="7.757575757575758" style="fill:#000000;shape-rendering:crispEdges;"/>
<rect x="131.87878787878788" y="69.81818181818181" width="7.757575757575758" height="7.757575757575758" style="fill:#000000;shape-rendering:crispEdges;"/>
<rect x="131.87878787878788" y="93.0909090909091" width="7.757575757575758" height="7.757575757575758" style="fill:#000000;shape-rendering:crispEdges;"/>
<rect x="131.87878787878788" y="108.60606060606061" width="7.757575757575758" height="7.757575757575758" style="fill:#000000;shape-rendering:crispEdges;"/>
<rect x="131.87878787878788" y="131.87878787878788" width="7.757575757575758" height="7.757575757575758" style="fill:#000000;shape-rendering:crispEdges;"/>
<rect x="131.87878787878788" y="139.63636363636363" width="7.757575757575758" height="7.757575757575758" style="fill:#000000;shape-rendering:crispEdges;"/>
<rect x="131.87878787878788" y="170.66666666666666" width="7.757575757575758" height="7.757575757575758" style="fill:#000000;shape-rendering:crispEdges;"/>
<rect x="131.87878787878788" y="178.42424242424244" width="7.757575757575758" height="7.757575757575758" style="fill:#000000;shape-rendering:crispEdges;"/>
<rect x="131.87878787878788" y="193.93939393939394" width="7.757575757575758" height="7.757575757575758" style="fill:#000000;shape-rendering:crispEdges;"/>
<rect x="131.87878787878788" y="201.69696969696972" width="7.757575757575758" height="7.757575757575758" style="fill:#000000;shape-rendering:crispEdges;"/>
<rect x="131.87878787878788" y="217.21212121212122" width="7.757575757575758" height="7.757575757575758" style="fill:#000000;shape-rendering:crispEdges;"/>
<rect x="139.63636363636363" y="31.03030303030303" width="7.757575757575758" height="7.757575757575758" style="fill:#000000;shape-rendering:crispEdges;"/>
<rect x="139.63636363636363" y="38.78787878787879" width="7.757575757575758" height="7.757575757575758" style="fill:#000000;shape-rendering:crispEdges;"/>
<rect x="139.63636363636363" y="54.303030303030305" width="7.757575757575758" height="7.757575757575758" style="fill:#000000;shape-rendering:crispEdges;"/>
<rect x="139.63636363636363" y="77.57575757575758" width="7.757575757575758" height="7.757575757575758" style="fill:#000000;shape-rendering:crispEdges;"/>
<rect x="139.63636363636363" y="116.36363636363637" width="7.757575757575758" height="7.757575757575758" style="fill:#000000;shape-rendering:crispEdges;"/>
<rect x="139.63636363636363" y="147.3939393939394" width="7.757575757575758" height="7.757575757575758" style="fill:#000000;shape-rendering:crispEdges;"/>
<rect x="139.63636363636363" y="170.66666666666666" width="7.757575757575758" height="7.757575757575758" style="fill:#000000;shape-rendering:crispEdges;"/>
<rect x="139.63636363636363" y="193.93939393939394" width="7.757575757575758" height="7.757575757575758" style="fill:#000000;shape-rendering:crispEdges;"/>
<rect x="139.63636363636363" y="201.69696969696972" width="7.757575757575758" height="7.757575757575758" style="fill:#000000;shape-rendering:crispEdges;"/>
<rect x="139.63636363636363" y="217.21212121212122" width="7.757575757575758" height="7.757575757575758" style="fill:#000000;shape-rendering:crispEdges;"/>
<rect x="147.3939393939394" y="54.303030303030305" width="7.757575757575758" height="7.757575757575758" style="fill:#000000;shape-rendering:crispEdges;"/>
<rect x="147.3939393939394" y="69.81818181818181" width="7.757575757575758" height="7.757575757575758" style="fill:#000000;shape-rendering:crispEdges;"/>
<rect x="147.3939393939394" y="85.33333333333334" width="7.757575757575758" height="7.757575757575758" style="fill:#000000;shape-rendering:crispEdges;"/>
<rect x="147.3939393939394" y="108.60606060606061" width="7.757575757575758" height="7.757575757575758" style="fill:#000000;shape-rendering:crispEdges;"/>
<rect x="147.3939393939394" y="131.87878787878788" width="7.757575757575758" height="7.757575757575758" style="fill:#000000;shape-rendering:crispEdges;"/>
<rect x="147.3939393939394" y="178.42424242424244" width="7.757575757575758" height="7.757575757575758" style="fill:#000000;shape-rendering:crispEdges;"/>
<rect x="147.3939393939394" y="186.1818181818182" width="7.757575757575758" height="7.757575757575758" style="fill:#000000;shape-rendering:crispEdges;"/>
<rect x="147.3939393939394" y="193.93939393939394" width="7.757575757575758" height="7.757575757575758" style="fill:#000000;shape-rendering:crispEdges;"/>
<rect x="155.15151515151516" y="31.03030303030303" width="7.757575757575758" height="7.757575757575758" style="fill:#000000;shape-rendering:crispEdges;"/>
<rect x="155.15151515151516" y="38.78787878787879" width="7.757575757575758" height="7.757575757575758" style="fill:#000000;shape-rendering:crispEdges;"/>
<rect x="155.15151515151516" y="46.54545454545455" width="7.757575757575758" height="7.757575757575758" style="fill:#000000;shape-rendering:crispEdges;"/>
<rect x="155.15151515151516" y="62.06060606060606" width="7.757575757575758" height="7.757575757575758" style="fill:#000000;shape-rendering:crispEdges;"/>
<rect x="155.15151515151516" y="69.81818181818181" width="7.757575757575758" height="7.757575757575758" style="fill:#000000;shape-rendering:crispEdges;"/>
<rect x="155.15151515151516" y="77.57575757575758" width="7.757575757575758" height="7.757575757575758" style="fill:#000000;shape-rendering:crispEdges;"/>
<rect x="155.15151515151516" y="85.33333333333334" width="7.757575757575758" height="7.757575757575758" style="fill:#000000;shape-rendering:crispEdges;"/>
<rect x="155.15151515151516" y="100.84848484848484" width="7.757575757575758" height="7.757575757575758" style="fill:#000000;shape-rendering:crispEdges;"/>
<rect x="155.15151515151516" y="116.36363636363637" width="7.757575757575758" height="7.757575757575758" style="fill:#000000;shape-rendering:crispEdges;"/>
<rect x="155.15151515151516" y="124.12121212121212" width="7.757575757575758" height="7.757575757575758" style="fill:#000000;shape-rendering:crispEdges;"/>
<rect x="155.15151515151516" y="131.87878787878788" width="7.757575757575758" height="7.757575757575758" style="fill:#000000;shape-rendering:crispEdges;"/>
<rect x="155.15151515151516" y="147.3939393939394" width="7.757575757575758" height="7.757575757575758" style="fill:#000000;shape-rendering:crispEdges;"/>
<rect x="155.15151515151516" y="155.15151515151516" width="7.757575757575758" height="7.757575757575758" style="fill:#000000;shape-rendering:crispEdges;"/>
<rect x="155.15151515151516" y="162.9090909090909" width="7.757575757575758" height="7.757575757575758" style="fill:#000000;shape-rendering:crispEdges;"/>
<rect x="155.15151515151516" y="170.66666666666666" width="7.757575757575758" height="7.757575757575758" style="fill:#000000;shape-rendering:crispEdges;"/>
<rect x="155.15151515151516" y="178.42424242424244" width="7.757575757575758" height="7.757575757575758" style="fill:#000000;shape-rendering:crispEdges;"/>
<rect x="155.15151515151516" y="186.1818181818182" width="7.757575757575758" height="7.757575757575758" style="fill:#000000;shape-rendering:crispEdges;"/>
<rect x="155.15151515151516" y="193.93939393939394" width="7.757575757575758" height="7.757575757575758" style="fill:#000000;shape-rendering:crispEdges;"/>
<rect x="155.15151515151516" y="209.45454545454547" width="7.757575757575758" height="7.757575757575758" style="fill:#000000;shape-rendering:crispEdges;"/>
<rect x="162.9090909090909" y="93.0909090909091" width="7.757575757575758" height="7.757575757575758" style="fill:#000000;shape-rendering:crispEdges;"/>
<rect x="162.9090909090909" y="100.84848484848484" width="7.757575757575758" height="7.757575757575758" style="fill:#000000;shape-rendering:crispEdges;"/>
<rect x="162.9090909090909" y="124.12121212121212" width="7.757575757575758" height="7.757575757575758" style="fill:#000000;shape-rendering:crispEdges;"/>
<rect x="162.9090909090909" y="155.15151515151516" width="7.757575757575758" height="7.757575757575758" style="fill:#000000;shape-rendering:crispEdges;"/>
<rect x="162.9090909090909" y="186.1818181818182" width="7.757575757575758" height="7.757575757575758" style="fill:#000000;shape-rendering:crispEdges;"/>
<rect x="162.9090909090909" y="193.93939393939394" width="7.757575757575758" height="7.757575757575758" style="fill:#000000;shape-rendering:crispEdges;"/>
<rect x="162.9090909090909" y="201.69696969696972" width="7.757575757575758" height="7.757575757575758" style="fill:#000000;shape-rendering:crispEdges;"/>
<rect x="170.66666666666666" y="31.03030303030303" width="7.757575757575758" height="7.757575757575758" style="fill:#000000;shape-rendering:crispEdges;"/>
<rect x="170.66666666666666" y="38.78787878787879" width="7.757575757575758" height="7.757575757575758" style="fill:#000000;shape-rendering:crispEdges;"/>
<rect x="170.66666666666666" y="46.54545454545455" width="7.757575757575758" height="7.757575757575758" style="fill:#000000;shape-rendering:crispEdges;"/>
<rect x="170.66666666666666" y="54.303030303030305" width="7.757575757575758" height="7.757575757575758" style="fill:#000000;shape-rendering:crispEdges;"/>
<rect x="170.66666666666666" y="62.06060606060606" width="7.757575757575758" height="7.757575757575758" style="fill:#000000;shape-rendering:crispEdges;"/>
<rect x="170.66666666666666" y="69.81818181818181" width="7.757575757575758" height="7.757575757575758" style="fill:#000000;shape-rendering:crispEdges;"/>
<rect x="170.66666666666666" y="77.57575757575758" width="7.757575757575758" height="7.757575757575758" style="fill:#000000;shape-rendering:crispEdges;"/>
<rect x="170.66666666666666" y="93.0909090909091" width="7.757575757575758" height="7.757575757575758" style="fill:#000000;shape-rendering:crispEdges;"/>
<rect x="170.66666666666666" y="108.60606060606061" width="7.757575757575758" height="7.757575757575758" style="fill:#000000;shape-rendering:crispEdges;"/>
<rect x="170.66666666666666" y="124.12121212121212" width="7.757575757575758" height="7.757575757575758" style="fill:#000000;shape-rendering:crispEdges;"/>
<rect x="170.66666666666666" y="131.87878787878788" width="7.757575757575758" height="7.757575757575758" style="fill:#000000;shape-rendering:crispEdges;"/>
<rect x="170.66666666666666" y="139.63636363636363" width="7.757575757575758" height="7.757575757575758" style="fill:#000000;shape-rendering:crispEdges;"/>
<rect x="170.66666666666666" y="147.3939393939394" width="7.757575757575758" height="7.757575757575758" style="fill:#000000;shape-rendering:crispEdges;"/>
<rect x="170.66666666666666" y="155.15151515151516" width="7.757575757575758" height="7.757575757575758" style="fill:#000000;shape-rendering:crispEdges;"/>
<rect x="170.66666666666666" y="170.66666666666666" width="7.757575757575758" height="7.757575757575758" style="fill:#000000;shape-rendering:crispEdges;"/>
<rect x="170.66666666666666" y="186.1818181818182" width="7.757575757575758" height="7.757575757575758" style="fill:#000000;shape-rendering:crispEdges;"/>
<rect x="170.66666666666666" y="217.21212121212122" width="7.757575757575758" height="7.757575757575758" style="fill:#000000;shape-rendering:crispEdges;"/>
<rect x="178.42424242424244" y="31.03030303030303" width="7.757575757575758" height="7.757575757575758" style="fill:#000000;shape-rendering:crispEdges;"/>
<rect x="178.42424242424244" y="77.57575757575758" width="7.757575757575758" height="7.757575757575758" style="fill:#000000;shape-rendering:crispEdges;"/>
<rect x="178.42424242424244" y="100.84848484848484" width="7.757575757575758" height="7.757575757575758" style="fill:#000000;shape-rendering:crispEdges;"/>
<rect x="178.42424242424244" y="108.60606060606061" width="7.757575757575758" height="7.757575757575758" style="fill:#000000;shape-rendering:crispEdges;"/>
<rect x="178.42424242424244" y="116.36363636363637" width="7.757575757575758" height="7.757575757575758" style="fill:#000000;shape-rendering:crispEdges;"/>
<rect x="178.42424242424244" y="124.12121212121212" width="7.757575757575758" height="7.757575757575758" style="fill:#000000;shape-rendering:crispEdges;"/>
<rect x="178.42424242424244" y="139.63636363636363" width="7.757575757575758" height="7.757575757575758" style="fill:#000000;shape-rendering:crispEdges;"/>
<rect x="178.42424242424244" y="147.3939393939394" width="7.757575757575758" height="7.757575757575758" style="fill:#000000;shape-rendering:crispEdges;"/>
<rect x="178.42424242424244" y="155.15151515151516" width="7.757575757575758" height="7.757575757575758" style="fill:#000000;shape-rendering:crispEdges;"/>
<rect x="178.42424242424244" y="186.1818181818182" width="7.757575757575758" height="7.757575757575758" style="fill:#000000;shape-rendering:crispEdges;"/>
<rect x="186.1818181818182" y="31.03030303030303" width="7.757575757575758" height="7.757575757575758" style="fill:#000000;shape-rendering:crispEdges;"/>
<rect x="186.1818181818182" y="46.54545454545455" width="7.757575757575758" height="7.757575757575758" style="fill:#000000;shape-rendering:crispEdges;"/>
<rect x="186.1818181818182" y="54.303030303030305" width="7.757575757575758" height="7.757575757575758" style="fill:#000000;shape-rendering:crispEdges;"/>
<rect x="186.1818181818182" y="62.06060606060606" width="7.757575757575758" height="7.757575757575758" style="fill:#000000;shape-rendering:crispEdges;"/>
<rect x="186.1818181818182" y="77.57575757575758" width="7.757575757575758" height="7.757575757575758" style="fill:#000000;shape-rendering:crispEdges;"/>
<rect x="186.1818181818182" y="131.87878787878788" width="7.757575757575758" height="7.757575757575758" style="fill:#000000;shape-rendering:crispEdges;"/>
<rect x="186.1818181818182" y="139.63636363636363" width="7.757575757575758" height="7.757575757575758" style="fill:#000000;shape-rendering:crispEdges;"/>
<rect x="186.1818181818182" y="155.15151515151516" width="7.757575757575758" height="7.757575757575758" style="fill:#000000;shape-rendering:crispEdges;"/>
<rect x="186.1818181818182" y="162.9090909090909" width="7.757575757575758" height="7.757575757575758" style="fill:#000000;shape-rendering:crispEdges;"/>
<rect x="186.1818181818182" y="170.66666666666666" width="7.757575757575758" height="7.757575757575758" style="fill:#000000;shape-rendering:crispEdges;"/>
<rect x="186.1818181818182" y="178.42424242424244" width="7.757575757575758" height="7.757575757575758" style="fill:#000000;shape-rendering:crispEdges;"/>
<rect x="186.1818181818182" y="186.1818181818182" width="7.757575757575758" height="7.757575757575758" style="fill:#000000;shape-rendering:crispEdges;"/>
<rect x="186.1818181818182" y="193.93939393939394" width="7.757575757575758" height="7.757575757575758" style="fill:#000000;shape-rendering:crispEdges;"/>
<rect x="193.93939393939394" y="31.03030303030303" width="7.757575757575758" height="7.757575757575758" style="fill:#000000;shape-rendering:crispEdges;"/>
<rect x="193.93939393939394" y="46.54545454545455" width="7.757575757575758" height="7.757575757575758" style="fill:#000000;shape-rendering:crispEdges;"/>
<rect x="193.93939393939394" y="54.303030303030305" width="7.757575757575758" height="7.757575757575758" style="fill:#000000;shape-rendering:crispEdges;"/>
<rect x="193.93939393939394" y="62.06060606060606" width="7.757575757575758" height="7.757575757575758" style="fill:#000000;shape-rendering:crispEdges;"/>
<rect x="193.93939393939394" y="77.57575757575758" width="7.757575757575758" height="7.757575757575758" style="fill:#000000;shape-rendering:crispEdges;"/>
<rect x="193.93939393939394" y="100.84848484848484" width="7.757575757575758" height="7.757575757575758" style="fill:#000000;shape-rendering:crispEdges;"/>
<rect x="193.93939393939394" y="131.87878787878788" width="7.757575757575758" height="7.757575757575758" style="fill:#000000;shape-rendering:crispEdges;"/>
<rect x="193.93939393939394" y="139.63636363636363" width="7.757575757575758" height="7.757575757575758" style="fill:#000000;shape-rendering:crispEdges;"/>
<rect x="193.93939393939394" y="155.15151515151516" width="7.757575757575758" height="7.757575757575758" style="fill:#000000;shape-rendering:crispEdges;"/>
<rect x="193.93939393939394" y="186.1818181818182" width="7.757575757575758" height="7.757575757575758" style="fill:#000000;shape-rendering:crispEdges;"/>
<rect x="201.69696969696972" y="31.03030303030303" width="7.757575757575758" height="7.757575757575758" style="fill:#000000;shape-rendering:crispEdges;"/>
<rect x="201.69696969696972" y="46.54545454545455" width="7.757575757575758" height="7.757575757575758" style="fill:#000000;shape-rendering:crispEdges;"/>
<rect x="201.69696969696972" y="54.303030303030305" width="7.757575757575758" height="7.757575757575758" style="fill:#000000;shape-rendering:crispEdges;"/>
<rect x="201.69696969696972" y="62.06060606060606" width="7.757575757575758" height="7.757575757575758" style="fill:#000000;shape-rendering:crispEdges;"/>
<rect x="201.69696969696972" y="77.57575757575758" width="7.757575757575758" height="7.757575757575758" style="fill:#000000;shape-rendering:crispEdges;"/>
<rect x="201.69696969696972" y="93.0909090909091" width="7.757575757575758" height="7.757575757575758" style="fill:#000000;shape-rendering:crispEdges;"/>
<rect x="201.69696969696972" y="100.84848484848484" width="7.757575757575758" height="7.757575757575758" style="fill:#000000;shape-rendering:crispEdges;"/>
<rect x="201.69696969696972" y="116.36363636363637" width="7.757575757575758" height="7.757575757575758" style="fill:#000000;shape-rendering:crispEdges;"/>
<rect x="201.69696969696972" y="162.9090909090909" width="7.757575757575758" height="7.757575757575758" style="fill:#000000;shape-rendering:crispEdges;"/>
<rect x="201.69696969696972" y="186.1818181818182" width="7.757575757575758" height="7.757575757575758" style="fill:#000000;shape-rendering:crispEdges;"/>
<rect x="201.69696969696972" y="193.93939393939394" width="7.757575757575758" height="7.757575757575758" style="fill:#000000;shape-rendering:crispEdges;"/>
<rect x="201.69696969696972" y="201.69696969696972" width="7.757575757575758" height="7.757575757575758" style="fill:#000000;shape-rendering:crispEdges;"/>
<rect x="201.69696969696972" y="209.45454545454547" width="7.757575757575758" height="7.757575757575758" style="fill:#000000;shape-rendering:crispEdges;"/>
<rect x="201.69696969696972" y="217.21212121212122" width="7.757575757575758" height="7.757575757575758" style="fill:#000000;shape-rendering:crispEdges;"/>
<rect x="209.45454545454547" y="31.03030303030303" width="7.757575757575758" height="7.757575757575758" style="fill:#000000;shape-rendering:crispEdges;"/>
<rect x="209.45454545454547" y="77.57575757575758" width="7.757575757575758" height="7.757575757575758" style="fill:#000000;shape-rendering:crispEdges;"/>
<rect x="209.45454545454547" y="108.60606060606061" width="7.757575757575758" height="7.757575757575758" style="fill:#000000;shape-rendering:crispEdges;"/>
<rect x="209.45454545454547" y="131.87878787878788" width="7.757575757575758" height="7.757575757575758" style="fill:#000000;shape-rendering:crispEdges;"/>
<rect x="209.45454545454547" y="178.42424242424244" width="7.757575757575758" height="7.757575757575758" style="fill:#000000;shape-rendering:crispEdges;"/>
<rect x="209.45454545454547" y="186.1818181818182" width="7.757575757575758" height="7.757575757575758" style="fill:#000000;shape-rendering:crispEdges;"/>
<rect x="209.45454545454547" y="193.93939393939394" width="7.757575757575758" height="7.757575757575758" style="fill:#000000;shape-rendering:crispEdges;"/>
<rect x="217.21212121212122" y="31.03030303030303" width="7.757575757575758" height="7.757575757575758" style="fill:#000000;shape-rendering:crispEdges;"/>
<rect x="217.21212121212122" y="38.78787878787879" width="7.757575757575758" height="7.757575757575758" style="fill:#000000;shape-rendering:crispEdges;"/>
<rect x="217.21212121212122" y="46.54545454545455" width="7.757575757575758" height="7.757575757575758" style="fill:#000000;shape-rendering:crispEdges;"/>
<rect x="217.21212121212122" y="54.303030303030305" width="7.757575757575758" height="7.757575757575758" style="fill:#000000;shape-rendering:crispEdges;"/>
<rect x="217.21212121212122" y="62.06060606060606" width="7.757575757575758" height="7.757575757575758" style="fill:#000000;shape-rendering:crispEdges;"/>
<rect x="217.21212121212122" y="69.81818181818181" width="7.757575757575758" height="7.757575757575758" style="fill:#000000;shape-rendering:crispEdges;"/>
<rect x="217.21212121212122" y="77.57575757575758" width="7.757575757575758" height="7.757575757575758" style="fill:#000000;shape-rendering:crispEdges;"/>
<rect x="217.21212121212122" y="93.0909090909091" width="7.757575757575758" height="7.757575757575758" style="fill:#000000;shape-rendering:crispEdges;"/>
<rect x="217.21212121212122" y="100.84848484848484" width="7.757575757575758" height="7.757575757575758" style="fill:#000000;shape-rendering:crispEdges;"/>
<rect x="217.21212121212122" y="108.60606060606061" width="7.757575757575758" height="7.757575757575758" style="fill:#000000;shape-rendering:crispEdges;"/>
<rect x="217.21212121212122" y="116.36363636363637" width="7.757575757575758" height="7.757575757575758" style="fill:#000000;shape-rendering:crispEdges;"/>
<rect x="217.21212121212122" y="124.12121212121212" width="7.757575757575758" height="7.757575757575758" style="fill:#000000;shape-rendering:crispEdges;"/>
<rect x="217.21212121212122" y="131.87878787878788" width="7.757575757575758" height="7.757575757575758" style="fill:#000000;shape-rendering:crispEdges;"/>
<rect x="217.21212121212122" y="147.3939393939394" width="7.757575757575758" height="7.757575757575758" style="fill:#000000;shape-rendering:crispEdges;"/>
<rect x="217.21212121212122" y="155.15151515151516" width="7.757575757575758" height="7.757575757575758" style="fill:#000000;shape-rendering:crispEdges;"/>
<rect x="217.21212121212122" y="170.66666666666666" width="7.757575757575758" height="7.757575757575758" style="fill:#000000;shape-rendering:crispEdges;"/>
<rect x="217.21212121212122" y="186.1818181818182" width="7.757575757575758" height="7.757575757575758" style="fill:#000000;shape-rendering:crispEdges;"/>
<rect x="217.21212121212122" y="201.69696969696972" width="7.757575757575758" height="7.757575757575758" style="fill:#000000;shape-rendering:crispEdges;"/>
<rect x="217.21212121212122" y="217.21212121212122" width="7.757575757575758" height="7.757575757575758" style="fill:#000000;shape-rendering:crispEdges;"/>
</svg>